<svg width="24" height="24" viewBox="0 0 24 24" fill="none" xmlns="http://www.w3.org/2000/svg">
<path d="M14.3025 20.9454C13.946 20.7584 13.7917 20.2051 13.9605 19.7188C14.0567 19.4418 14.3107 18.9668 14.4991 18.7118C14.7548 18.3656 14.9789 18.1732 16.0507 17.3795C16.6649 16.9248 17.1337 16.5367 17.7446 15.9775C18.0025 15.7415 18.4516 15.3423 18.7428 15.0905C19.4751 14.4571 19.6347 14.2675 19.6142 14.0554C19.6031 13.941 19.4998 13.8522 19.3303 13.8113C19.265 13.7955 18.8509 13.7684 18.41 13.7511C17.4458 13.7131 17.3496 13.705 16.7313 13.6096C16.0543 13.5052 15.4108 13.4692 14.2315 13.4697C13.2249 13.4702 12.8411 13.4461 12.0278 13.3317C11.8531 13.3071 11.5128 13.2712 11.2716 13.2519C11.0303 13.2326 10.5539 13.182 10.2129 13.1395C9.60858 13.0643 9.26326 13.0415 7.67208 12.9723C6.68209 12.9292 6.0288 12.8688 5.23714 12.7474C4.66333 12.6593 4.53824 12.6503 3.94295 12.6541C3.5805 12.6564 3.14217 12.6731 2.96889 12.6913C2.52734 12.7375 1.35809 12.7395 1.04782 12.6945C0.716255 12.6464 0.515806 12.5456 0.32585 12.3315C0.0408737 12.0104 -0.0597679 11.6657 0.0341436 11.3325C0.117851 11.0355 0.364685 10.5288 0.49848 10.3793C0.647494 10.2128 0.864513 10.0984 1.16881 10.0261C1.36085 9.98039 1.60924 9.96995 2.78707 9.95804C4.46903 9.94104 5.94517 9.985 7.25483 10.0911C7.79209 10.1346 8.57196 10.1972 8.98786 10.23C9.40377 10.2629 10.1048 10.3245 10.5456 10.3669C11.9157 10.4985 12.7489 10.5707 13.283 10.6043C13.5659 10.622 14.0423 10.6572 14.3417 10.6825C14.6412 10.7078 15.2809 10.749 15.7634 10.7741C16.2458 10.7992 16.9876 10.8426 17.4119 10.8706C17.8361 10.8985 18.4418 10.9236 18.7579 10.9262C19.2552 10.9304 19.3457 10.9236 19.43 10.8762C19.6187 10.7699 19.6318 10.6134 19.4721 10.3765C19.2942 10.1127 17.989 8.64535 17.1385 7.75315C16.6405 7.23074 15.5733 6.01246 15.4437 5.81838C15.3928 5.7423 15.3079 5.5857 15.2548 5.47038C15.1712 5.28845 15.1585 5.22775 15.159 5.01148C15.1595 4.80019 15.173 4.7338 15.2478 4.5755C15.3759 4.30472 15.57 4.10307 15.7579 4.04558C15.8418 4.01992 15.959 3.99941 16.0184 4.00001C16.1902 4.00174 16.5648 4.07994 16.7532 4.15338C17.2306 4.3395 18.5422 5.2797 19.7191 6.27946C21.2414 7.57253 22.1437 8.43873 22.8881 9.32141C23.5176 10.0678 23.7613 10.4431 23.9187 10.9082C24.1212 11.5065 23.936 12.3678 23.4683 13.0028C23.2674 13.2756 22.7988 13.8076 22.1765 14.4694C21.8934 14.7705 21.3453 15.3546 20.9586 15.7673C20.0787 16.7064 19.316 17.3929 18.4272 18.0458C18.2345 18.1874 17.9511 18.4114 17.7973 18.5437C17.5259 18.7771 17.4108 18.87 16.5801 19.5254C16.3638 19.696 16.0507 19.9581 15.8844 20.1077C15.5183 20.437 15.071 20.7857 14.87 20.8983C14.6608 21.0156 14.467 21.0316 14.3025 20.9454V20.9454Z" fill="#32312F"/>
</svg>
