<svg width="24" height="24" viewBox="0 0 24 24" fill="none" xmlns="http://www.w3.org/2000/svg">
<path d="M18.9862 8.52989C18.9347 8.32047 18.6038 8.08175 18.2721 8.01466C18.042 7.96811 17.7817 8.02994 17.3405 8.23592C16.6773 8.54553 16.5347 8.66473 16.1326 9.24522C15.9915 9.449 15.876 9.62283 15.876 9.63152C15.876 9.6402 15.833 9.7059 15.7805 9.77751C15.728 9.84912 15.5681 10.0718 15.4252 10.2723C15.1299 10.6867 14.9507 10.9267 14.5968 11.3817C14.4605 11.5569 14.232 11.8579 14.089 12.0506C13.8369 12.3904 13.7136 12.5421 13.4482 12.8387C13.3783 12.9168 13.2284 13.0883 13.1149 13.22C12.5915 13.8273 12.4503 13.9284 12.1802 13.8896C11.9852 13.8616 11.7959 13.7159 11.0821 13.0439C10.4456 12.4449 9.90506 11.9618 9.27267 11.4268C9.07512 11.2597 8.82698 11.0469 8.72123 10.9539C8.61549 10.8609 8.49155 10.7583 8.4458 10.726C8.40006 10.6937 8.2573 10.5852 8.12856 10.485C7.99982 10.3847 7.84445 10.2697 7.78328 10.2294C7.18589 9.83606 6.96353 9.71931 6.52956 9.57116C6.32531 9.50144 6.22292 9.48458 6.0059 9.48497C5.76036 9.48541 5.71425 9.49556 5.49238 9.59797C5.19611 9.73472 5.07016 9.86819 5.02026 10.0983C4.91384 10.589 5.23468 11.4922 5.79437 12.2775C6.21424 12.8666 6.38838 13.076 6.7712 13.4519C7.26722 13.9389 8.23083 14.8231 8.62042 15.1487C9.10403 15.5529 9.58412 15.9675 9.9395 16.2881C10.607 16.89 11.135 17.0943 11.6783 16.9609C12.1285 16.8504 12.3977 16.6575 13.0673 15.966C13.7405 15.2708 13.9033 15.1151 14.2392 14.8448C14.7593 14.4266 15.097 14.1245 15.2571 13.9344C15.3444 13.8308 15.5372 13.6041 15.6856 13.4305C15.834 13.2569 16.0053 13.0506 16.0664 12.9721C16.1275 12.8935 16.2348 12.7666 16.3048 12.6901C16.5479 12.4245 16.827 12.0766 17.3792 11.3509C17.5386 11.1414 18.0976 10.3512 18.0976 10.3353C18.0976 10.3301 18.1948 10.1703 18.3136 9.98009C18.6809 9.39203 18.9788 8.84927 18.9954 8.73799C19.0041 8.6795 19 8.58586 18.9862 8.52989V8.52989Z" fill="#32312F"/>
</svg>
