<svg width="2048" height="2048" viewBox="0 0 2048 2048" fill="none" xmlns="http://www.w3.org/2000/svg">
<g clip-path="url(#clip0_257_19)">
<path d="M-98.2574 33.6L105.084 52.0317L124.128 -132.286L-94.571 -190.039L-118.53 -96.0367L-98.2574 33.6Z" fill="#FCDDD1"/>
<path d="M124.128 -132.286C124.128 -132.286 379.071 -48.1142 379.071 -52.4149C379.071 -56.7157 375.386 -180.208 375.386 -180.208L124.128 -132.286Z" fill="#FCDDD1"/>
<path d="M589.784 -16.1658L379.071 -52.4149L353.27 109.785C353.27 109.785 598.999 190.27 598.385 187.812C597.771 185.355 589.784 -16.1658 589.784 -16.1658Z" fill="#FCDDD1"/>
<path d="M589.784 -16.1658L586.713 -156.247L769.167 -174.065L760.566 -58.5588L589.784 -16.1658Z" fill="#FCDDD1"/>
<path d="M760.566 -58.5588L789.439 220.99L961.45 174.296L946.706 -214L760.566 -58.5588Z" fill="#FCDDD1"/>
<path d="M961.45 174.296L1150.66 100.569L1143.29 395.477L958.993 442.171L961.45 174.296Z" fill="#FCDDD1"/>
<path d="M1369.36 39.1295L1150.66 100.569L1153.12 -164.849L1384.1 -137.815L1369.36 39.1295Z" fill="#FCDDD1"/>
<path d="M1330.04 343.868L1534 319.292L1583.14 31.7568L1369.36 39.1295L1330.04 343.868Z" fill="#FCDDD1"/>
<path d="M1583.14 31.7568L1794.47 36.6719L1843.62 -182.052L1607.72 -162.391L1583.14 31.7568Z" fill="#FCDDD1"/>
<path d="M1794.47 36.6719L1725.67 314.377L1961.57 299.632L2010.71 34.2144L1794.47 36.6719Z" fill="#FCDDD1"/>
<path d="M2037.74 -150.103L2010.71 34.2144L2195.01 31.7568L2187.28 -141.955L2037.74 -150.103Z" fill="#FCDDD1"/>
<path d="M105.084 52.0317L353.27 109.785L371.7 297.174L128.428 277.514L105.084 52.0317Z" fill="#FCDDD1"/>
<path d="M598.385 187.812L605.142 378.274L811.555 444.628L789.439 220.99L598.385 187.812Z" fill="#FCDDD1"/>
<path d="M128.428 277.514L-114.844 272.598L-28.8388 510.982L180.031 518.355L128.428 277.514Z" fill="#FCDDD1"/>
<path d="M371.7 297.174L605.142 378.274L624.801 567.507L371.7 523.27V297.174Z" fill="#FCDDD1"/>
<path d="M811.555 444.628L958.993 442.171L976.193 619.115L811.555 611.743V444.628Z" fill="#FCDDD1"/>
<path d="M1143.29 395.477L1133.46 582.252L1320.21 550.304L1330.04 343.868L1143.29 395.477Z" fill="#FCDDD1"/>
<path d="M1725.67 314.377L1534 319.292L1502.05 538.016L1693.72 533.101L1725.67 314.377Z" fill="#FCDDD1"/>
<path d="M1961.57 299.632L2207.3 250.48L2150.78 501.152L1885.39 525.728L1961.57 299.632Z" fill="#FCDDD1"/>
<path d="M-28.8388 510.982L2.53293 713.65L-146.898 729.29L-124.309 480.789L-28.8388 510.982Z" fill="#FCDDD1"/>
<path d="M180.031 518.355L371.7 523.27L396.961 722.338H190.19L180.031 518.355Z" fill="#FCDDD1"/>
<path d="M624.801 567.507L811.555 611.743L808.764 765.783L584.618 741.454L624.801 567.507Z" fill="#FCDDD1"/>
<path d="M976.193 619.115L1133.46 582.252L1147.59 755.356L965.145 770.996L976.193 619.115Z" fill="#FCDDD1"/>
<path d="M1320.21 550.304L1502.05 538.016L1500.32 743.192L1310.92 741.454L1320.21 550.304Z" fill="#FCDDD1"/>
<path d="M1693.72 533.101L1635.85 746.667L1847.83 750.143L1885.39 525.728L1693.72 533.101Z" fill="#FCDDD1"/>
<path d="M2150.78 501.152L2063.29 727.552L2247.47 734.503L2254.42 524.234L2150.78 501.152Z" fill="#FCDDD1"/>
<path d="M2.53293 713.65L16.4335 906.541L200.616 903.066L190.19 722.338L2.53293 713.65Z" fill="#FCDDD1"/>
<path d="M396.961 722.338L377.847 901.328H589.831L584.618 741.454L396.961 722.338Z" fill="#FCDDD1"/>
<path d="M808.764 765.783L791.388 903.066L968.62 916.968L965.145 770.996L808.764 765.783Z" fill="#FCDDD1"/>
<path d="M1147.59 755.356L1131.95 913.492L1312.66 916.968L1310.92 741.454L1147.59 755.356Z" fill="#FCDDD1"/>
<path d="M1500.32 743.192L1635.85 746.667L1637.58 910.017L1474.25 908.279L1500.32 743.192Z" fill="#FCDDD1"/>
<path d="M1847.83 750.143L1835.67 906.541L2092.83 897.853L2063.29 727.552L1847.83 750.143Z" fill="#FCDDD1"/>
<path d="M2231.83 885.688C2223.14 887.426 2092.83 897.853 2092.83 897.853L2162.33 1099.43L2296.12 1120.29L2231.83 885.688Z" fill="#FCDDD1"/>
<path d="M1835.67 906.541L1637.58 910.017L1663.65 1090.74L1894.74 1094.22L1835.67 906.541Z" fill="#FCDDD1"/>
<path d="M1474.25 908.279L1312.66 916.968L1307.45 1085.53L1467.3 1082.06L1474.25 908.279Z" fill="#FCDDD1"/>
<path d="M968.62 916.968L1131.95 913.492L1137.16 1090.74L959.932 1080.32L968.62 916.968Z" fill="#FCDDD1"/>
<path d="M791.388 903.066L589.831 901.328L568.98 1094.22L779.225 1085.53L791.388 903.066Z" fill="#FCDDD1"/>
<path d="M377.847 901.328L339.621 1101.17L157.176 1095.96L200.616 903.066L377.847 901.328Z" fill="#FCDDD1"/>
<path d="M16.4335 906.541L30.334 1089.01L-89.5581 1085.53L-86.083 904.804L16.4335 906.541Z" fill="#FCDDD1"/>
<path d="M157.176 1095.96L30.334 1089.01L-41.1251 1290.65L88.4969 1319.52L157.176 1095.96Z" fill="#FCDDD1"/>
<path d="M568.98 1094.22L573.812 1283.89L310.268 1314.61L339.621 1101.17L568.98 1094.22Z" fill="#FCDDD1"/>
<path d="M779.225 1085.53L959.932 1080.32L958.378 1276.51L771.624 1273.44L779.225 1085.53Z" fill="#FCDDD1"/>
<path d="M1137.16 1090.74L1307.45 1085.53L1316.53 1260.54L1132.23 1276.51L1137.16 1090.74Z" fill="#FCDDD1"/>
<path d="M1467.3 1082.06L1663.65 1090.74L1698.64 1275.29L1486.08 1260.54L1467.3 1082.06Z" fill="#FCDDD1"/>
<path d="M1894.74 1094.22L2162.33 1099.43L2223.27 1319.52L1945.59 1297.4L1894.74 1094.22Z" fill="#FCDDD1"/>
<path d="M-41.1251 1290.65L-99.1147 1466.97L-239.858 1381.82L-172.093 1227.16L-41.1251 1290.65Z" fill="#FCDDD1"/>
<path d="M88.4969 1319.52L30.334 1565.15L342.227 1506.94L310.268 1314.61L88.4969 1319.52Z" fill="#FCDDD1"/>
<path d="M573.812 1283.89L601.994 1451.33L790.52 1432.21L771.624 1273.44L573.812 1283.89Z" fill="#FCDDD1"/>
<path d="M958.378 1276.51H1132.23L1144.11 1477.4L953.851 1455.67L958.378 1276.51Z" fill="#FCDDD1"/>
<path d="M1316.53 1260.54H1486.08L1509 1458.28L1323.08 1463.49L1316.53 1260.54Z" fill="#FCDDD1"/>
<path d="M1698.64 1275.29L1945.59 1297.4L1923.41 1486.95L1691.45 1460.02L1698.64 1275.29Z" fill="#FCDDD1"/>
<path d="M2223.27 1319.52L2163.2 1512.15L2380.39 1519.97L2383 1335.77L2223.27 1319.52Z" fill="#FCDDD1"/>
<path d="M30.334 1565.15L-154.16 1524.73L-156.618 1695.53L74.3678 1750.83L30.334 1565.15Z" fill="#FCDDD1"/>
<path d="M342.227 1506.94L601.994 1451.33L638.316 1575.11L377.843 1670.95L342.227 1506.94Z" fill="#FCDDD1"/>
<path d="M790.52 1432.21L953.851 1455.67L965.135 1631.63L802.954 1561.59L790.52 1432.21Z" fill="#FCDDD1"/>
<path d="M1144.11 1477.4L1323.08 1463.49L1343.56 1672.18L1135.92 1670.95L1144.11 1477.4Z" fill="#FCDDD1"/>
<path d="M1509 1458.28L1691.45 1460.02L1665.46 1605.83L1500.83 1645.15L1509 1458.28Z" fill="#FCDDD1"/>
<path d="M1923.41 1486.95L2163.2 1512.15L2064.77 1652.52L1820.27 1611.97L1923.41 1486.95Z" fill="#FCDDD1"/>
<path d="M74.3678 1750.83L377.843 1670.95L425.76 1803.66L130.885 1909.34L74.3678 1750.83Z" fill="#FCDDD1"/>
<path d="M-156.618 1695.53L-53.4118 1901.97L-299.141 1879.85L-336 1710.28L-156.618 1695.53Z" fill="#FCDDD1"/>
<path d="M-53.4118 1901.97L-31.2959 2076.45L150.543 2093.66L130.885 1909.34L-53.4118 1901.97Z" fill="#FCDDD1"/>
<path d="M425.76 1803.66L646.916 1715.19L632.172 1926.54L391.358 2027.3L425.76 1803.66Z" fill="#FCDDD1"/>
<path d="M638.316 1575.11L646.916 1715.19L816.47 1710.28L802.954 1561.59L638.316 1575.11Z" fill="#FCDDD1"/>
<path d="M965.135 1631.63L1135.92 1670.95L1143.29 1847.9L951.62 1774.17L965.135 1631.63Z" fill="#FCDDD1"/>
<path d="M1343.56 1672.18L1322.67 1845.44L1499.6 1796.29L1500.83 1645.15L1343.56 1672.18Z" fill="#FCDDD1"/>
<path d="M1665.46 1605.83L1820.27 1611.97L1792.01 1744.68L1622.46 1761.88L1665.46 1605.83Z" fill="#FCDDD1"/>
<path d="M2064.77 1652.52L1991.05 1779.09L2266.27 1850.36L2224.5 1661.12L2064.77 1652.52Z" fill="#FCDDD1"/>
<path d="M1991.05 1779.09V1933.91L1794.47 1914.25L1792.01 1744.68L1991.05 1779.09Z" fill="#FCDDD1"/>
<path d="M1622.46 1761.88L1499.6 1796.29L1452.91 1916.71L1639.66 1899.51L1622.46 1761.88Z" fill="#FCDDD1"/>
<path d="M1322.67 1845.44L1303.01 1938.83L1126.09 1956.03L1143.29 1847.9L1322.67 1845.44Z" fill="#FCDDD1"/>
<path d="M951.62 1774.17L971.279 1953.57L777.153 1901.97L816.47 1710.28L951.62 1774.17Z" fill="#FCDDD1"/>
<path d="M-31.2959 2076.45L-12.8662 2174.76L-170.133 2178.44L-178.733 2029.76L-31.2959 2076.45Z" fill="#FCDDD1"/>
<path d="M150.543 2093.66L133.342 2210.39L377.843 2204.25L391.358 2027.3L150.543 2093.66Z" fill="#FCDDD1"/>
<path d="M632.172 1926.54L777.153 1901.97L774.695 2198.1L565.826 2188.27L632.172 1926.54Z" fill="#FCDDD1"/>
<path d="M971.279 1953.57L966.364 2141.58L1153.12 2075.22L1126.09 1956.03L971.279 1953.57Z" fill="#FCDDD1"/>
<path d="M966.364 2141.58L774.695 2198.1L785.753 2260.77L1031.48 2262L966.364 2141.58Z" fill="#FCDDD1"/>
<path d="M1153.12 2075.22L1282.13 2032.22L1315.3 2232.51L1119.95 2216.53L1153.12 2075.22Z" fill="#FCDDD1"/>
<path d="M1282.13 2032.22L1303.01 1938.83L1452.91 1916.71L1447.99 2050.65L1282.13 2032.22Z" fill="#FCDDD1"/>
<path d="M1447.99 2050.65L1466.42 2226.36L1704.78 2233.74L1632.29 2072.77L1447.99 2050.65Z" fill="#FCDDD1"/>
<path d="M1632.29 2072.77L1826.42 2110.86L1794.47 1914.25L1639.66 1899.51L1632.29 2072.77Z" fill="#FCDDD1"/>
<path d="M1826.42 2110.86L1820.03 2232.45L2042.44 2237.67L2000.74 2121.24L1826.42 2110.86Z" fill="#FCDDD1"/>
<path d="M1991.05 1933.91L2000.74 2121.24L2254.42 2152.52L2242.26 1971.79L1991.05 1933.91Z" fill="#FCDDD1"/>
</g>
<defs>
<clipPath id="clip0_257_19">
<rect width="2048" height="2048" fill="white"/>
</clipPath>
</defs>
</svg>
