<svg width="24" height="24" viewBox="0 0 24 24" fill="none" xmlns="http://www.w3.org/2000/svg">
<path d="M2.44973 21.3221C1.61876 20.2942 2.19159 19.1786 5.81096 14.7759C8.25485 11.8031 8.66967 11.0546 8.11572 10.6174C7.74417 10.3241 6.21274 9.14158 4.71253 7.98951C3.20771 6.83389 1.99168 5.51793 2.00004 5.0541C2.02316 3.77207 3.02503 2.70181 4.57245 2.30608C5.84887 1.97966 6.22422 2.22737 8.9482 5.1939L11.9278 8.43879L12.709 7.21477C13.1387 6.54156 14.6205 5.09549 16.0021 4.00128C19.3469 1.35205 22 1.33035 22 3.95223C22 4.1682 20.2844 5.85406 18.1876 7.69857C16.0908 9.54309 14.3752 11.2231 14.3752 11.432C14.3752 11.6409 15.6804 13.4444 17.2757 15.4398C20.2219 19.125 20.5663 20.2936 18.9979 21.2842C18.0945 21.8547 16.8171 20.6956 13.1025 15.9347L11.5916 13.9981L9.29699 16.6889C4.67492 22.109 3.64776 22.804 2.44973 21.3221V21.3221Z" fill="#32312F"/>
</svg>
