<svg width="220" height="24" viewBox="0 0 220 24" fill="none" xmlns="http://www.w3.org/2000/svg">
<path d="M44.2461 0.570312H34.8521V23.3189H44.2461C49.4841 23.3189 52.957 21.3284 54.6081 17.8024C55.4052 16.21 55.6898 14.2763 55.6898 11.9446C55.6898 9.61288 55.3482 7.67925 54.6081 6.08685C53.0139 2.56081 49.4841 0.570312 44.2461 0.570312ZM49.7118 16.0394C48.7439 18.0867 46.8082 19.2242 43.506 19.2242H39.8622V4.66506H43.506C46.8082 4.66506 48.8008 5.74562 49.7118 7.84986C50.2242 8.93042 50.4519 10.1816 50.4519 11.9446C50.4519 13.7076 50.2242 14.9588 49.7118 16.0394Z" fill="#FBF4EC"/>
<path d="M60.0161 23.3189H75.2174V19.3379H65.0263V13.7076H75.1605V9.84037H65.0263V4.55132H75.2174V0.570312H60.0161V23.3189Z" fill="#FBF4EC"/>
<path d="M90.6475 9.83658C87.8008 9.09725 85.1249 8.69915 84.4417 7.22049C84.3279 6.87926 84.2709 6.59491 84.2709 6.19681C84.2709 5.79871 84.3279 5.51435 84.4987 5.17312C84.9541 4.14943 86.2636 3.58072 87.9716 3.58072C89.7935 3.58072 90.9891 4.2063 91.5585 5.34373C91.8431 5.91245 91.957 6.59491 91.957 7.39111H97.081C97.081 6.08306 96.8533 5.05938 96.4548 4.09256C95.2022 1.47647 92.2417 0.0546875 88.1994 0.0546875C84.0432 0.0546875 80.9118 1.59022 79.7732 4.09256C79.3746 4.94563 79.1469 5.79871 79.1469 6.82239C79.1469 7.84608 79.3746 8.64228 79.6593 9.38161C80.6272 11.4859 83.0184 12.5095 85.8081 13.2489C88.7118 14.0451 91.6154 14.5 92.4125 16.2062C92.5833 16.5474 92.6971 16.8886 92.6971 17.4005C92.6971 17.7986 92.5833 18.1967 92.4125 18.6517C91.9001 19.7322 90.4767 20.3009 88.541 20.3009C86.4344 20.3009 85.1249 19.6185 84.4987 18.3673C84.214 17.7986 84.1571 17.0593 84.1571 16.2631H78.6914C78.7483 17.5711 78.9191 18.7085 79.3746 19.7322C80.6272 22.3483 83.6447 23.9976 88.3702 23.9976C92.8679 23.9976 96.227 22.5189 97.5365 19.7891C97.9351 18.936 98.1628 17.9692 98.1628 16.8318C98.1628 15.7512 97.9351 14.8413 97.6504 14.0451C96.4548 11.5996 93.7219 10.6328 90.6475 9.83658Z" fill="#FBF4EC"/>
<path d="M107.044 0.570312H102.09V23.3189H107.044V0.570312Z" fill="#FBF4EC"/>
<path d="M123.271 14.5591H129.135C129.078 15.5828 128.907 16.2652 128.623 17.0046C127.769 18.8245 125.89 19.7344 123.271 19.7344C120.538 19.7344 118.545 18.7107 117.578 16.6633C117.008 15.4122 116.78 14.1041 116.78 11.943C116.78 9.78189 117.008 8.41698 117.578 7.22268C118.545 5.1753 120.424 4.15162 123.157 4.15162C124.865 4.15162 126.345 4.54972 127.313 5.45966C128.167 6.14212 128.623 7.1658 128.794 8.41698H133.918C133.69 6.02838 132.665 3.981 131.014 2.50234C129.135 0.853072 126.459 0 123.214 0C117.976 0 114.446 2.10424 112.624 5.85776C111.827 7.50703 111.429 9.49753 111.429 11.943C111.429 14.3885 111.827 16.379 112.624 18.0283C114.389 21.7249 117.976 23.886 123.1 23.886C127.883 23.886 131.185 22.0661 132.893 18.4832C133.747 16.6633 134.088 14.616 134.088 12.4549V10.9193H123.271V14.5591Z" fill="#FBF4EC"/>
<path d="M154.015 16.21L143.539 0.570312H138.415V23.3189H143.311V7.73612L153.73 23.3189H158.854V0.570312H154.015V16.21Z" fill="#FBF4EC"/>
<path d="M186.297 18.3126C185.272 19.1657 183.849 19.6775 182.084 19.6775C179.522 19.6775 177.643 18.6538 176.675 16.6633C176.106 15.469 175.878 13.9904 175.878 11.943C175.878 9.89563 176.106 8.47385 176.675 7.27955C177.586 5.34592 179.351 4.20849 182.084 4.20849C183.849 4.20849 185.158 4.66346 186.183 5.51653C187.151 6.3696 187.663 7.50703 187.72 9.04256H193.015C192.901 6.42648 191.933 4.20849 190.055 2.61609C188.119 0.966815 185.443 0 182.255 0C177.074 0 173.487 2.16112 171.836 5.80089C171.039 7.5639 170.64 9.55441 170.64 11.943C170.64 14.3316 171.039 16.3221 171.836 18.0851C173.601 21.7818 177.188 23.886 182.312 23.886C185.5 23.886 188.347 22.9761 190.225 21.2699C191.99 19.7344 193.072 17.5733 193.129 14.9572H187.834C187.777 16.4359 187.208 17.5164 186.297 18.3126Z" fill="#FBF4EC"/>
<path d="M218.691 5.74402C216.983 2.16112 213.453 0 208.329 0C203.148 0 199.561 2.16112 197.91 5.74402C197.113 7.50703 196.714 9.61128 196.714 11.943C196.714 14.2747 197.113 16.379 197.967 18.142C199.675 21.7818 203.205 23.886 208.329 23.886C213.51 23.886 216.983 21.7818 218.748 18.142C219.602 16.379 220 14.2747 220 11.943C220 9.61128 219.488 7.50703 218.691 5.74402ZM213.795 16.4359C212.884 18.4264 211.119 19.5638 208.272 19.5638C205.425 19.5638 203.603 18.3695 202.749 16.4359C202.18 15.1847 201.952 13.8198 201.952 11.8861C201.952 9.95251 202.18 8.58759 202.749 7.33642C203.66 5.40279 205.425 4.20849 208.272 4.20849C211.119 4.20849 212.941 5.40279 213.795 7.33642C214.421 8.58759 214.592 9.95251 214.592 11.8861C214.592 13.8198 214.364 15.2416 213.795 16.4359Z" fill="#FBF4EC"/>
<path d="M2.27996 6.27809V1.02344H22.3353L22.3354 1.02346V21.0568H17.075V9.97638L3.71968 23.3171L0 19.6015L13.338 6.27809H2.27996Z" fill="#FBF4EC"/>
</svg>
