<svg preserveAspectRatio="none" width="302" height="302" viewBox="0 0 302 302" fill="none" xmlns="http://www.w3.org/2000/svg">
<path vector-effect="non-scaling-stroke" d="M1.00001 150.996C1.03018 194.332 32.904 237.261 80.7539 265.33C128.604 293.399 190.364 306.024 235.221 299.032C280.077 292.04 306.003 265.459 300.175 228.336C294.347 191.213 256.875 144.171 206.558 103.098C156.242 62.0234 95.2091 27.6959 53.9017 11.6398C12.5943 -4.41625 -7.11173 -1.82157 4.50672 18.4619C16.1252 38.7386 58.7 76.4332 110.889 118.749C163.084 161.067 222.669 207.269 259.947 241.78C297.224 276.291 310.471 298.423 293.201 300.788C275.931 303.153 228.756 285.608 175.299 254.16C121.843 222.711 64.4036 177.861 31.5943 134.778C-1.215 91.6966 -7.85408 51.1703 14.8698 26.8355C37.5876 2.50077 88.8114 -5.12084 142.905 6.45038C196.999 18.0284 251.624 48.684 279.579 88.0112C307.535 127.331 307.484 174.647 279.579 213.985C251.674 253.323 197.002 283.928 142.905 295.54C88.8053 307.152 37.6419 299.464 14.8698 275.159C-7.90843 250.856 -1.16673 210.295 31.5943 167.216C64.3553 124.136 121.833 79.3057 175.299 47.8372C228.765 16.3619 275.875 -1.12373 293.201 1.20677C310.527 3.5305 297.181 25.7244 259.947 60.2145C222.711 94.7046 163.099 140.918 110.889 183.245C58.6819 225.571 16.1855 263.218 4.50669 283.533C-7.16609 303.849 12.6305 306.376 53.9017 290.354C95.1728 274.331 156.22 239.956 206.558 198.896C256.896 157.834 294.288 110.801 300.175 73.6556C306.061 36.5166 280.044 9.99363 235.221 2.96147C190.397 -4.07068 128.632 8.62513 80.7539 36.6657C32.8738 64.7062 1.03019 107.658 1.00001 150.996Z" stroke="#32312F" stroke-linecap="round" stroke-linejoin="round"/>
</svg>
