<svg width="24" height="24" viewBox="0 0 24 24" fill="none" xmlns="http://www.w3.org/2000/svg">
<path d="M2.69855 21.948C1.74125 21.8419 1.01301 21.5937 0.65295 21.2507C-0.495967 20.1562 0.149527 18.069 1.8832 17.2727C2.40297 17.034 2.61001 17.0189 6.61224 16.9283C12.7064 16.7903 20.5945 16.882 21.5216 17.1016C23.2229 17.5045 24.0008 18.3733 23.8732 19.7281C23.7403 21.1397 22.6799 21.6078 19.6035 21.6128C18.8262 21.6141 16.0132 21.6871 13.3525 21.775C6.36134 22.0059 3.62246 22.0504 2.69855 21.948V21.948ZM1.75562 14.5113C0.891977 14.3371 0.443846 13.9905 0.147928 13.2679C-0.238549 12.3242 0.160658 11.0828 1.01484 10.572C1.97361 9.99878 2.69141 9.91495 8.56908 9.68978C14.9897 9.4438 21.7815 9.35511 22.3321 9.51005C22.8675 9.66072 23.42 10.0287 23.7094 10.4274C23.9526 10.7624 24.0672 11.5442 23.9593 12.1312C23.8638 12.6507 23.2274 13.3672 22.7183 13.5285C22.474 13.6059 20.6696 13.6885 18.0272 13.7432C13.8708 13.8293 11.5997 13.9502 5.52511 14.4087C2.38941 14.6454 2.41674 14.6447 1.75562 14.5113V14.5113ZM2.84734 6.81561C1.40433 6.47977 0.632998 5.78151 0.632998 4.81105C0.632998 3.85643 1.35303 3.1901 2.72305 2.87685C4.00185 2.58445 11.0589 2.1088 15.418 2.0212C20.1589 1.92592 21.7153 2.13442 22.7482 3.00316C23.6648 3.77394 23.6998 4.99693 22.8235 5.63352C22.2307 6.06418 21.3293 6.1819 15.9072 6.53669C9.61601 6.94836 3.93871 7.06961 2.84734 6.81561V6.81561Z" fill="#32312F"/>
</svg>
