<svg width="16" height="16" viewBox="0 0 16 16" fill="none" xmlns="http://www.w3.org/2000/svg">
<g clip-path="url(#clip0_354_253)">
<path d="M9.85078 14.9908C8.85573 15.0124 9.00677 13.8628 9.41501 13.2597C9.7419 12.4369 10.4754 11.7458 10.4495 10.8002C10.0202 9.85704 9.05849 9.36031 8.54199 8.47825C7.14308 10.2059 5.97177 12.1748 4.45187 13.8056C3.75221 14.2938 3.07966 13.5539 2.57004 13.1062C1.77838 12.3306 1.05285 11.4723 0.400543 10.5639C-0.0777899 9.86451 -0.18962 8.74727 0.409078 8.09526C1.22973 7.60402 2.20643 8.12379 2.92675 8.5942C3.48936 9.11045 3.62684 7.7629 4.02236 7.43121C4.81902 6.03838 5.61401 4.63284 6.65704 3.42582C7.23446 2.74452 7.67982 1.9283 8.35237 1.3442C9.21829 0.904981 9.18345 1.91126 8.72973 2.39726C7.79893 3.8862 6.54543 5.11323 5.63675 6.62141C5.04431 7.52682 4.37906 8.38416 3.83522 9.32145C3.3813 9.91733 2.61113 9.3033 2.1524 8.97242C1.75 8.65645 1.07246 8.22563 1.2698 9.12529C1.25103 10.3769 2.259 11.2066 2.91548 12.1156C3.24529 12.3365 3.60911 13.2441 3.94851 13.0894C5.52932 11.0547 6.88378 8.8377 8.44561 6.78666C9.71247 5.13982 10.9059 3.41356 12.3853 1.96799C12.7239 1.67229 13.4997 0.500968 13.789 1.24153C13.5923 1.73504 12.9367 2.12713 13.2759 2.54464C13.1539 3.81828 12.5349 5.04648 12.6997 6.35074C12.9146 7.25173 13.8539 7.56416 14.5759 7.88267C15.2192 8.02473 16.4678 8.30234 15.8177 9.25565C15.14 10.7914 14.2488 12.2442 13.1184 13.4484C12.2449 14.3279 11.1033 15.0928 9.85078 14.9908V14.9908ZM10.4766 14.4555C11.5839 14.0788 12.4561 13.1516 13.139 12.1838C13.8066 11.2154 14.4929 10.2087 14.8371 9.05697C14.5761 8.37281 13.4861 8.6256 12.9436 8.16137C12.1943 7.8147 11.3809 7.21838 11.3697 6.25543C11.3002 5.65906 11.5524 4.82008 11.576 4.39215C10.7219 5.47925 9.89668 6.59156 9.08479 7.71421C9.84891 8.19663 10.4787 8.88588 11.1312 9.52007C11.6435 9.99689 12.0737 10.7071 11.7074 11.4278C11.2478 12.4296 10.3977 13.2439 10.1578 14.353C10.195 14.4978 10.3746 14.4683 10.4766 14.4555V14.4555Z" fill="#FF8064"/>
</g>
<defs>
<clipPath id="clip0_354_253">
<rect width="16" height="16" fill="white"/>
</clipPath>
</defs>
</svg>
