<svg width="800" height="218" viewBox="0 0 800 218" fill="none" xmlns="http://www.w3.org/2000/svg">
<path d="M0 217.217V172.691C0 172.482 0.114754 172.378 0.344261 172.378H28.8553C29.064 172.378 29.1683 172.482 29.1683 172.691V177.513C29.1683 177.722 29.064 177.826 28.8553 177.826H6.41577C6.20713 177.826 6.10281 177.941 6.10281 178.171V191.228C6.10281 191.457 6.20713 191.572 6.41577 191.572H26.2264C26.4351 191.572 26.5394 191.677 26.5394 191.885V196.676C26.5394 196.906 26.4351 197.021 26.2264 197.021H6.41577C6.20713 197.021 6.10281 197.125 6.10281 197.334V217.217C6.10281 217.426 5.99849 217.53 5.78984 217.53H0.344261C0.114754 217.53 0 217.426 0 217.217Z" fill="#212121"/>
<path d="M29.9182 217.217L45.0343 172.691C45.0969 172.482 45.2221 172.378 45.4099 172.378H53.2966C53.5053 172.378 53.6409 172.482 53.7035 172.691L68.6319 217.217C68.6527 217.3 68.6319 217.373 68.5693 217.436C68.5067 217.499 68.4232 217.53 68.3189 217.53H62.2787C62.1326 217.53 62.0283 217.426 61.9657 217.217L59.0239 208.042C58.9821 207.834 58.8257 207.729 58.5544 207.729H39.9643C39.7765 207.729 39.6514 207.834 39.5888 208.042L36.5843 217.217C36.5217 217.426 36.4174 217.53 36.2713 217.53H30.2937C30.2311 217.53 30.1685 217.519 30.1059 217.499C30.0433 217.478 29.9912 217.446 29.9495 217.405C29.9077 217.363 29.8973 217.3 29.9182 217.217ZM41.4666 202.281C41.4457 202.323 41.4353 202.364 41.4353 202.406C41.4353 202.531 41.5291 202.594 41.7169 202.594H56.8957C57.0835 202.594 57.1774 202.531 57.1774 202.406C57.1774 202.364 57.1669 202.323 57.1461 202.281L49.6662 178.797C49.6036 178.609 49.4889 178.515 49.322 178.515C49.1759 178.515 49.0716 178.609 49.009 178.797L41.4666 202.281Z" fill="#212121"/>
<path d="M76.486 217.217V172.691C76.486 172.482 76.6008 172.378 76.8303 172.378H82.2759C82.4845 172.378 82.5888 172.482 82.5888 172.691V211.768C82.5888 211.977 82.6932 212.082 82.9018 212.082H105.341C105.55 212.082 105.654 212.186 105.654 212.395V217.217C105.654 217.426 105.55 217.53 105.341 217.53H76.8303C76.6008 217.53 76.486 217.426 76.486 217.217Z" fill="#212121"/>
<path d="M112.131 217.217V172.691C112.131 172.482 112.246 172.378 112.476 172.378H117.921C118.13 172.378 118.234 172.482 118.234 172.691V211.768C118.234 211.977 118.339 212.082 118.547 212.082H140.987C141.195 212.082 141.3 212.186 141.3 212.395V217.217C141.3 217.426 141.195 217.53 140.987 217.53H112.476C112.246 217.53 112.131 217.426 112.131 217.217Z" fill="#212121"/>
<path d="M657.198 216.967V212.458C657.198 212.082 657.281 211.811 657.448 211.644L675.256 194.265C678.928 190.759 680.743 187.7 680.702 185.091C680.681 184.214 680.503 183.327 680.17 182.43C679.836 181.511 679.345 180.634 678.699 179.799C678.052 178.964 677.165 178.286 676.038 177.764C674.912 177.221 673.629 176.95 672.189 176.95C669.831 176.95 667.881 177.701 666.337 179.204C664.813 180.707 664.052 182.471 664.052 184.496C664.052 184.726 663.948 184.841 663.739 184.841H658.262C658.053 184.841 657.949 184.726 657.949 184.496C657.949 180.676 659.284 177.555 661.955 175.134C664.647 172.712 668.058 171.502 672.189 171.502C674.442 171.502 676.498 171.867 678.354 172.598C680.211 173.307 681.745 174.278 682.955 175.51C684.186 176.741 685.135 178.182 685.803 179.831C686.471 181.48 686.804 183.233 686.804 185.091C686.804 186.26 686.627 187.429 686.272 188.598C685.939 189.767 685.563 190.759 685.146 191.573C684.749 192.366 684.176 193.243 683.424 194.203C682.694 195.142 682.131 195.821 681.734 196.238C681.359 196.656 680.816 197.209 680.107 197.898C680.044 197.96 679.992 198.013 679.951 198.054C679.93 198.075 679.888 198.117 679.825 198.179C679.784 198.221 679.742 198.263 679.7 198.305L665.585 211.331C665.502 211.393 665.481 211.498 665.523 211.644C665.565 211.769 665.669 211.832 665.836 211.832H686.492C686.7 211.832 686.804 211.936 686.804 212.145V216.967C686.804 217.175 686.7 217.28 686.492 217.28H657.511C657.302 217.28 657.198 217.175 657.198 216.967Z" fill="#212121"/>
<path d="M694.033 194.704C694.033 179.236 699.76 171.502 711.214 171.502C722.627 171.502 728.334 179.236 728.334 194.704C728.334 210.235 722.627 218 711.214 218C699.76 218 694.033 210.235 694.033 194.704ZM700.511 194.704C700.511 200.591 701.346 205.037 703.015 208.043C704.684 211.028 707.417 212.52 711.214 212.52C714.991 212.52 717.714 211.017 719.383 208.011C721.073 205.006 721.918 200.57 721.918 194.704C721.918 188.817 721.083 184.392 719.414 181.428C717.745 178.442 715.012 176.95 711.214 176.95C707.396 176.95 704.653 178.432 702.983 181.396C701.335 184.36 700.511 188.796 700.511 194.704Z" fill="#212121"/>
<path d="M734.31 216.967V212.458C734.31 212.082 734.393 211.811 734.56 211.644L752.368 194.265C756.04 190.759 757.855 187.7 757.814 185.091C757.793 184.214 757.615 183.327 757.282 182.43C756.948 181.511 756.457 180.634 755.811 179.799C755.164 178.964 754.277 178.286 753.15 177.764C752.024 177.221 750.741 176.95 749.301 176.95C746.943 176.95 744.992 177.701 743.449 179.204C741.925 180.707 741.164 182.471 741.164 184.496C741.164 184.726 741.06 184.841 740.851 184.841H735.374C735.165 184.841 735.061 184.726 735.061 184.496C735.061 180.676 736.396 177.555 739.067 175.134C741.759 172.712 745.17 171.502 749.301 171.502C751.554 171.502 753.609 171.867 755.466 172.598C757.323 173.307 758.857 174.278 760.067 175.51C761.298 176.741 762.247 178.182 762.915 179.831C763.583 181.48 763.916 183.233 763.916 185.091C763.916 186.26 763.739 187.429 763.384 188.598C763.051 189.767 762.675 190.759 762.258 191.573C761.861 192.366 761.287 193.243 760.536 194.203C759.806 195.142 759.243 195.821 758.846 196.238C758.471 196.656 757.928 197.209 757.219 197.898C757.156 197.96 757.104 198.013 757.063 198.054C757.042 198.075 757 198.117 756.937 198.179C756.896 198.221 756.854 198.263 756.812 198.305L742.697 211.331C742.614 211.393 742.593 211.498 742.635 211.644C742.677 211.769 742.781 211.832 742.948 211.832H763.603C763.812 211.832 763.916 211.936 763.916 212.145V216.967C763.916 217.175 763.812 217.28 763.603 217.28H734.623C734.414 217.28 734.31 217.175 734.31 216.967Z" fill="#212121"/>
<path d="M770.394 216.967V212.458C770.394 212.082 770.477 211.811 770.644 211.644L788.452 194.265C792.124 190.759 793.939 187.7 793.897 185.091C793.876 184.214 793.699 183.327 793.365 182.43C793.031 181.511 792.541 180.634 791.894 179.799C791.247 178.964 790.361 178.286 789.234 177.764C788.107 177.221 786.824 176.95 785.385 176.95C783.027 176.95 781.076 177.701 779.532 179.204C778.009 180.707 777.247 182.471 777.247 184.496C777.247 184.726 777.143 184.841 776.934 184.841H771.458C771.249 184.841 771.145 184.726 771.145 184.496C771.145 180.676 772.48 177.555 775.151 175.134C777.842 172.712 781.253 171.502 785.385 171.502C787.638 171.502 789.693 171.867 791.55 172.598C793.407 173.307 794.94 174.278 796.151 175.51C797.382 176.741 798.331 178.182 798.999 179.831C799.666 181.48 800 183.233 800 185.091C800 186.26 799.823 187.429 799.468 188.598C799.134 189.767 798.759 190.759 798.341 191.573C797.945 192.366 797.371 193.243 796.62 194.203C795.89 195.142 795.326 195.821 794.93 196.238C794.554 196.656 794.012 197.209 793.303 197.898C793.24 197.96 793.188 198.013 793.146 198.054C793.125 198.075 793.083 198.117 793.021 198.179C792.979 198.221 792.937 198.263 792.896 198.305L778.781 211.331C778.698 211.393 778.677 211.498 778.718 211.644C778.76 211.769 778.864 211.832 779.031 211.832H799.687C799.896 211.832 800 211.936 800 212.145V216.967C800 217.175 799.896 217.28 799.687 217.28H770.706C770.498 217.28 770.394 217.175 770.394 216.967Z" fill="#212121"/>
<path d="M137.487 99.7273V68.7775C137.487 65.1666 134.393 62.0717 130.784 62.0717H68.7433C55.5102 62.0717 44.5113 51.0673 44.5113 37.8276C44.5113 24.416 55.3383 13.5835 68.7433 13.5835H130.784C134.565 13.5835 137.487 10.3166 137.487 6.7058C137.487 3.09498 134.393 0 130.784 0H37.8088C36.0902 0 34.1998 0.687766 32.9968 1.89138C31.7938 3.09498 30.9345 4.98636 30.9345 6.7058C30.9345 19.9455 19.9355 31.1218 6.70247 31.1218C2.92159 31.1218 0 33.8729 0 37.6557V68.7775C0 72.3883 3.09345 75.4833 6.70247 75.4833H68.7433C81.9763 75.4833 92.9753 86.4877 92.9753 99.7273C92.9753 112.967 81.9763 124.143 68.7433 124.143L6.70247 123.971C3.09345 123.971 0 127.066 0 130.677C0 134.46 2.92159 137.555 6.70247 137.555H99.6777C103.459 137.555 106.552 134.46 106.552 130.677C106.552 117.266 117.551 106.605 130.784 106.605C134.565 106.605 137.487 103.338 137.487 99.7273Z" fill="#212121"/>
<path d="M288.534 6.7058C288.534 3.09498 285.44 0 281.831 0H157.75C154.141 0 151.047 3.09498 151.047 6.7058V37.8276C151.047 41.4384 154.141 44.5334 157.75 44.5334H188.856C195.215 44.5334 201.23 47.2845 205.87 51.755C210.51 56.2256 213.088 62.2436 213.088 68.7775V130.849C213.088 134.46 216.181 137.555 219.79 137.555C223.571 137.555 226.665 134.46 226.665 130.677L226.493 37.8276C226.493 24.416 237.32 13.5835 250.725 13.5835H281.831C285.612 13.5835 288.534 10.3166 288.534 6.7058Z" fill="#212121"/>
<path d="M439.581 68.7775V6.7058C439.581 4.98636 438.894 3.26693 437.519 2.06332V1.89138C436.316 0.687766 434.597 0 432.878 0H308.797C305.188 0 302.094 3.09498 302.094 6.7058V130.849C302.094 134.46 305.188 137.555 308.797 137.555C312.406 137.555 315.671 134.632 315.671 130.849V99.7273C315.671 86.3157 326.498 75.4833 339.903 75.4833C346.434 75.4833 352.449 78.0624 356.917 82.7049C361.385 87.3474 364.135 93.3654 364.135 99.7273V130.849C364.135 134.46 367.229 137.555 370.838 137.555H401.772C405.381 137.555 408.646 134.632 408.646 130.849V99.7273C408.646 86.4877 419.302 75.4833 432.707 75.4833C436.316 75.4833 439.581 72.5602 439.581 68.7775ZM426.176 37.4837C426.176 50.8953 415.177 61.8997 401.772 61.8997H339.903C326.842 61.8997 315.671 50.7234 315.671 37.6557C315.671 24.2441 326.498 13.4116 339.903 13.4116L401.772 13.2397C414.662 13.2397 426.176 24.5879 426.176 37.4837Z" fill="#212121"/>
<path d="M497.653 130.677V6.7058C497.653 3.09498 494.559 0 490.95 0C487.17 0 484.076 2.92304 484.076 6.7058V37.8276C484.076 50.8953 472.905 62.0717 459.844 62.0717C458.125 62.0717 456.407 62.7594 455.204 63.963C454.001 65.1666 453.142 66.8861 453.142 68.7775V130.849C453.142 134.46 456.235 137.555 459.844 137.555H490.95C494.731 137.555 497.653 134.288 497.653 130.677Z" fill="#212121"/>
<path d="M648.53 99.7273V37.6557C648.53 35.9362 647.842 34.2168 646.467 33.0132V32.8412C645.436 31.8096 643.889 31.1218 642.343 31.1218C628.766 31.1218 617.595 20.4613 617.595 6.7058C617.595 4.81442 616.736 3.09498 615.533 1.89138C614.33 0.687766 612.439 0 610.721 0H517.746C514.136 0 511.043 3.09498 511.043 6.7058V130.849C511.043 134.46 514.136 137.555 517.746 137.555H610.721C614.33 137.555 617.595 134.632 617.595 130.849C617.595 117.609 628.25 106.605 641.655 106.605C645.436 106.605 648.53 103.51 648.53 99.7273ZM604.018 99.5554C604.018 105.917 601.44 112.107 596.972 116.578C592.332 121.22 586.317 123.799 579.786 123.799L548.852 123.971C535.619 123.971 524.62 112.623 524.62 99.5554V37.6557C524.62 24.2441 535.447 13.4116 548.852 13.4116L579.786 13.2397C593.019 13.2397 604.018 24.5879 604.018 37.6557V99.5554Z" fill="#212121"/>
<path d="M799.577 130.677C799.577 127.066 796.483 123.971 792.874 123.971L699.899 124.143C686.666 124.143 675.667 112.967 675.667 99.7273C675.667 86.3157 686.494 75.4833 699.899 75.4833L792.702 75.6552C796.483 75.6552 799.577 72.5602 799.577 68.7775V6.7058C799.577 3.09498 796.483 0 792.874 0H668.793C665.184 0 662.09 3.09498 662.09 6.7058V130.849C662.09 134.46 665.184 137.555 668.793 137.555H792.702C796.483 137.555 799.577 134.46 799.577 130.677ZM786.172 37.8276C786.172 51.0673 775.001 62.0717 761.768 62.0717H730.834C717.772 62.0717 706.602 50.8953 706.602 37.8276C706.602 24.416 717.429 13.5835 730.834 13.5835L761.768 13.4116C774.829 13.4116 786.172 24.7599 786.172 37.8276Z" fill="#212121"/>
<path d="M194.2 192.577H604.941V196.016H194.2V192.577Z" fill="#212121"/>
</svg>
