<svg width="233" height="40" viewBox="0 0 233 40" fill="none" xmlns="http://www.w3.org/2000/svg">
<path d="M40.0641 29V20C40.0641 18.95 39.1627 18.05 38.111 18.05H20.0321C16.1759 18.05 12.9708 14.85 12.9708 11C12.9708 7.1 16.1258 3.95 20.0321 3.95H38.111C39.2128 3.95 40.0641 3 40.0641 1.95C40.0641 0.899997 39.1627 0 38.111 0H11.0176C10.5168 0 9.96596 0.199997 9.61539 0.549999C9.26483 0.899997 9.01443 1.45 9.01443 1.95C9.01443 5.8 5.8093 9.05 1.95313 9.05C0.851363 9.05 0 9.85 0 10.95V20C0 21.05 0.901443 21.95 1.95313 21.95H20.0321C23.8882 21.95 27.0934 25.15 27.0934 29C27.0934 32.85 23.8882 36.1 20.0321 36.1L1.95313 36.05C0.901443 36.05 0 36.95 0 38C0 39.1 0.851363 40 1.95313 40H29.0465C30.1483 40 31.0497 39.1 31.0497 38C31.0497 34.1 34.2548 31 38.111 31C39.2128 31 40.0641 30.05 40.0641 29Z" fill="#32312F"/>
<path d="M84.0799 1.95C84.0799 0.899997 83.1785 0 82.1268 0H45.9689C44.9172 0 44.0158 0.899997 44.0158 1.95V11C44.0158 12.05 44.9172 12.95 45.9689 12.95H55.0334C56.8864 12.95 58.6392 13.75 59.9914 15.05C61.3435 16.35 62.0947 18.1 62.0947 20V38.05C62.0947 39.1 62.9962 40 64.0479 40C65.1496 40 66.0511 39.1 66.0511 38L66.001 11C66.001 7.1 69.156 3.95 73.0623 3.95H82.1268C83.2286 3.95 84.0799 3 84.0799 1.95Z" fill="#32312F"/>
<path d="M128.096 20V1.95C128.096 1.45 127.895 0.95 127.495 0.599998V0.549999C127.144 0.199997 126.643 0 126.143 0H89.9847C88.933 0 88.0316 0.899997 88.0316 1.95V38.05C88.0316 39.1 88.933 40 89.9847 40C91.0364 40 91.9879 39.15 91.9879 38.05V29C91.9879 25.1 95.143 21.95 99.0492 21.95C100.952 21.95 102.705 22.7 104.007 24.05C105.309 25.4 106.111 27.15 106.111 29V38.05C106.111 39.1 107.012 40 108.064 40H117.078C118.13 40 119.081 39.15 119.081 38.05V29C119.081 25.15 122.186 21.95 126.093 21.95C127.144 21.95 128.096 21.1 128.096 20ZM124.189 10.9C124.189 14.8 120.984 18 117.078 18H99.0492C95.2431 18 91.9879 14.75 91.9879 10.95C91.9879 7.05 95.143 3.9 99.0492 3.9L117.078 3.85C120.834 3.85 124.189 7.15 124.189 10.9Z" fill="#32312F"/>
<path d="M145.018 38V1.95C145.018 0.899997 144.117 0 143.065 0C141.963 0 141.062 0.849998 141.062 1.95V11C141.062 14.8 137.807 18.05 134 18.05C133.5 18.05 132.999 18.25 132.648 18.6C132.298 18.95 132.047 19.45 132.047 20V38.05C132.047 39.1 132.949 40 134 40H143.065C144.167 40 145.018 39.05 145.018 38Z" fill="#32312F"/>
<path d="M188.984 29V10.95C188.984 10.45 188.784 9.95 188.383 9.6V9.55C188.083 9.25 187.632 9.05 187.181 9.05C183.225 9.05 179.97 5.95 179.97 1.95C179.97 1.4 179.719 0.899997 179.369 0.549999C179.018 0.199997 178.467 0 177.967 0H150.873C149.822 0 148.92 0.899997 148.92 1.95V38.05C148.92 39.1 149.822 40 150.873 40H177.967C179.018 40 179.97 39.15 179.97 38.05C179.97 34.2 183.075 31 186.981 31C188.083 31 188.984 30.1 188.984 29ZM176.013 28.95C176.013 30.8 175.262 32.6 173.96 33.9C172.608 35.25 170.855 36 168.952 36L159.938 36.05C156.082 36.05 152.876 32.75 152.876 28.95V10.95C152.876 7.05 156.031 3.9 159.938 3.9L168.952 3.85C172.808 3.85 176.013 7.15 176.013 10.95V28.95Z" fill="#32312F"/>
<path d="M233 38C233 36.95 232.099 36.05 231.047 36.05L203.953 36.1C200.097 36.1 196.892 32.85 196.892 29C196.892 25.1 200.047 21.95 203.953 21.95L230.997 22C232.099 22 233 21.1 233 20V1.95C233 0.899997 232.099 0 231.047 0H194.889C193.837 0 192.936 0.899997 192.936 1.95V38.05C192.936 39.1 193.837 40 194.889 40H230.997C232.099 40 233 39.1 233 38ZM229.094 11C229.094 14.85 225.839 18.05 221.982 18.05H212.968C209.162 18.05 205.907 14.8 205.907 11C205.907 7.1 209.062 3.95 212.968 3.95L221.982 3.9C225.788 3.9 229.094 7.2 229.094 11Z" fill="#32312F"/>
</svg>
