<svg width="768" height="132" viewBox="0 0 768 132" fill="none" xmlns="http://www.w3.org/2000/svg">
<path d="M132.057 95.7V66C132.057 62.535 129.086 59.565 125.619 59.565H66.0285C53.318 59.565 42.7534 49.005 42.7534 36.3C42.7534 23.43 53.1529 13.035 66.0285 13.035H125.619C129.251 13.035 132.057 9.9 132.057 6.435C132.057 2.96999 129.086 0 125.619 0H36.3157C34.6649 0 32.8492 0.659992 31.6937 1.815C30.5382 2.96999 29.7128 4.785 29.7128 6.435C29.7128 19.14 19.1483 29.865 6.43778 29.865C2.80621 29.865 0 32.505 0 36.135V66C0 69.465 2.97128 72.435 6.43778 72.435H66.0285C78.7389 72.435 89.3035 82.995 89.3035 95.7C89.3035 108.405 78.7389 119.13 66.0285 119.13L6.43778 118.965C2.97128 118.965 0 121.935 0 125.4C0 129.03 2.80621 132 6.43778 132H95.7413C99.3728 132 102.344 129.03 102.344 125.4C102.344 112.53 112.909 102.3 125.619 102.3C129.251 102.3 132.057 99.165 132.057 95.7Z" fill="#FBF4EC"/>
<path d="M277.139 6.435C277.139 2.96999 274.168 0 270.701 0H151.52C148.053 0 145.082 2.96999 145.082 6.435V36.3C145.082 39.765 148.053 42.735 151.52 42.735H181.398C187.505 42.735 193.283 45.375 197.74 49.665C202.197 53.955 204.673 59.73 204.673 66V125.565C204.673 129.03 207.644 132 211.111 132C214.742 132 217.713 129.03 217.713 125.4L217.548 36.3C217.548 23.43 227.948 13.035 240.823 13.035H270.701C274.333 13.035 277.139 9.9 277.139 6.435Z" fill="#FBF4EC"/>
<path d="M422.221 66V6.435C422.221 4.785 421.561 3.135 420.24 1.97999V1.815C419.085 0.659992 417.434 0 415.783 0H296.602C293.135 0 290.164 2.96999 290.164 6.435V125.565C290.164 129.03 293.135 132 296.602 132C300.068 132 303.205 129.195 303.205 125.565V95.7C303.205 82.83 313.604 72.435 326.48 72.435C332.753 72.435 338.53 74.91 342.822 79.365C347.114 83.82 349.755 89.595 349.755 95.7V125.565C349.755 129.03 352.726 132 356.193 132H385.905C389.372 132 392.508 129.195 392.508 125.565V95.7C392.508 82.995 402.743 72.435 415.618 72.435C419.085 72.435 422.221 69.63 422.221 66ZM409.346 35.97C409.346 48.84 398.781 59.4 385.905 59.4H326.48C313.934 59.4 303.205 48.675 303.205 36.135C303.205 23.265 313.604 12.87 326.48 12.87L385.905 12.705C398.286 12.705 409.346 23.595 409.346 35.97Z" fill="#FBF4EC"/>
<path d="M478 125.4V6.435C478 2.96999 475.028 0 471.562 0C467.93 0 464.959 2.80499 464.959 6.435V36.3C464.959 48.84 454.229 59.565 441.684 59.565C440.033 59.565 438.383 60.225 437.227 61.38C436.072 62.535 435.246 64.185 435.246 66V125.565C435.246 129.03 438.218 132 441.684 132H471.562C475.193 132 478 128.865 478 125.4Z" fill="#FBF4EC"/>
<path d="M622.918 95.7V36.135C622.918 34.485 622.258 32.835 620.937 31.68V31.515C619.947 30.525 618.461 29.865 616.975 29.865C603.935 29.865 593.205 19.635 593.205 6.435C593.205 4.62 592.38 2.96999 591.224 1.815C590.069 0.659992 588.253 0 586.602 0H497.299C493.832 0 490.861 2.96999 490.861 6.435V125.565C490.861 129.03 493.832 132 497.299 132H586.602C590.069 132 593.205 129.195 593.205 125.565C593.205 112.86 603.44 102.3 616.315 102.3C619.947 102.3 622.918 99.33 622.918 95.7ZM580.165 95.535C580.165 101.64 577.688 107.58 573.397 111.87C568.94 116.325 563.162 118.8 556.889 118.8L527.177 118.965C514.466 118.965 503.902 108.075 503.902 95.535V36.135C503.902 23.265 514.301 12.87 527.177 12.87L556.889 12.705C569.6 12.705 580.165 23.595 580.165 36.135V95.535Z" fill="#FBF4EC"/>
<path d="M768 125.4C768 121.935 765.029 118.965 761.562 118.965L672.259 119.13C659.548 119.13 648.984 108.405 648.984 95.7C648.984 82.83 659.383 72.435 672.259 72.435L761.397 72.6C765.029 72.6 768 69.63 768 66V6.435C768 2.96999 765.029 0 761.562 0H642.381C638.914 0 635.943 2.96999 635.943 6.435V125.565C635.943 129.03 638.914 132 642.381 132H761.397C765.029 132 768 129.03 768 125.4ZM755.125 36.3C755.125 49.005 744.395 59.565 731.684 59.565H701.972C689.426 59.565 678.697 48.84 678.697 36.3C678.697 23.43 689.096 13.035 701.972 13.035L731.684 12.87C744.23 12.87 755.125 23.76 755.125 36.3Z" fill="#FBF4EC"/>
</svg>
