<svg width="2048" height="2048" viewBox="0 0 2048 2048" fill="none" xmlns="http://www.w3.org/2000/svg">
<g clip-path="url(#clip0_257_15)">
<path d="M236.63 2048.77C239.936 2042.87 255.314 2028.37 269.564 2017.71C277.295 2011.93 291.525 2001.61 301.188 1994.77C310.85 1987.94 329.572 1974.23 342.791 1964.31C356.011 1954.39 372.952 1942.24 380.438 1937.32C396.894 1926.5 425.869 1912 442.027 1906.5C456.475 1901.58 481.58 1895.29 500.463 1891.85C515.349 1889.15 608.889 1875.63 635.981 1872.27C673.823 1867.58 723.136 1867.6 767.502 1872.32C860.368 1882.21 902.343 1884.81 929.131 1882.31C974.508 1878.09 1035.45 1860.05 1095.28 1833.12C1114.96 1824.27 1231.12 1766.16 1261.16 1750.14C1292.42 1733.48 1303.98 1729.3 1317.22 1729.9C1323.76 1730.2 1325.36 1730.65 1328.62 1733.14C1337.73 1740.09 1337.22 1752.65 1327.22 1767.42C1322.4 1774.53 1304.1 1792.98 1286.52 1808.45C1268.57 1824.26 1261.64 1829.86 1240.02 1846.1C1191.63 1882.43 1172.7 1905.44 1168.56 1932.96C1166.84 1944.42 1168.13 1952.91 1174.73 1973.7C1180.93 1993.21 1181.73 1999.28 1183.14 2037.19L1183.69 2052L1002.7 2051.97L821.713 2051.95L816.81 2032.15C807.858 1995.99 803.775 1986.65 794.313 1980.63C782.044 1972.84 769.202 1972.45 725.84 1978.58C698.966 1982.38 689.419 1983.41 645.527 1987.28C595.732 1991.68 560.916 2003.23 524.346 2027.51C513.267 2034.86 500.628 2046.31 499.432 2050.08C498.835 2051.96 496.009 2052 366.819 2052H234.816L236.63 2048.77ZM1299.56 2022.13C1300.52 1981.89 1300.07 1978.2 1289.5 1939.56C1283.63 1918.14 1287.19 1899.74 1300.54 1882.39C1310.62 1869.29 1335.31 1848.78 1361.31 1831.92C1367.66 1827.8 1382.8 1818.4 1394.94 1811.04C1439.31 1784.14 1457.38 1772.03 1479.33 1754.52C1516.8 1724.61 1539.13 1698.26 1562.41 1656.46C1573.34 1636.85 1581.01 1618.79 1591.31 1588.45C1604.72 1548.93 1611.57 1534.76 1650.62 1465.72C1661.4 1446.67 1675.54 1421.37 1682.04 1409.5C1688.55 1397.63 1696.63 1383.63 1700.01 1378.38C1721.51 1345.01 1755.09 1313.06 1822.11 1262.24C1858.51 1234.63 1890.37 1216.61 1931.53 1200.36C1964.94 1187.17 2014.42 1174.27 2039.95 1172.1C2044.09 1171.75 2048.5 1171.25 2049.74 1171L2052 1170.53V1284.78V1399.03L2042.21 1401.96C2031.14 1405.28 2005.63 1417.79 1989.91 1427.61C1963.21 1444.29 1927.32 1478.53 1904.2 1509.39C1888.31 1530.6 1870.52 1562.82 1863.75 1582.67C1857.98 1599.6 1857.25 1605.75 1855.72 1650.44C1854.94 1673.35 1853.84 1696.62 1853.29 1702.14C1851.6 1718.86 1851.95 1734.58 1854.13 1739.36C1856.56 1744.72 1860.68 1746.6 1866.31 1744.91C1874.62 1742.42 1887.99 1726.67 1896.64 1709.17C1903.97 1694.33 1909.24 1677.28 1915.4 1648.43C1925.23 1602.42 1931.34 1585.78 1947.73 1560.44C1964.7 1534.2 2013.22 1478.91 2030.92 1465.63C2037.24 1460.89 2048.56 1454.68 2050.87 1454.68C2051.71 1454.68 2051.94 1509.87 2051.75 1667.55L2051.5 1880.42L2044.97 1882.71C2021.32 1890.98 1978 1920.86 1939.06 1955.74C1920.18 1972.66 1883.74 2009.94 1876.4 2019.84C1869.64 2028.97 1864.59 2038.27 1861.82 2046.73L1860.09 2052H1758.41H1656.73L1656.19 2036.69C1655.6 2019.96 1654.34 2014.22 1649.58 2006.72C1647.49 2003.41 1645.14 2001.35 1641.32 1999.44C1630.45 1994.03 1618.36 1996.43 1594.72 2008.72C1568 2022.6 1551.07 2034.71 1543.2 2045.55L1538.53 2052H1418.69H1298.85L1299.56 2022.13ZM2043.47 2049.47C2045.12 2048.11 2047.72 2046.57 2049.24 2046.04C2051.9 2045.11 2052 2045.2 2052 2048.54V2052L2046.23 2051.96L2040.46 2051.93L2043.47 2049.47ZM-4 1774.51V1567.98L-1.74121 1568.64C3.09722 1570.05 13.6389 1575.37 18.5024 1578.85C21.3102 1580.86 28.8026 1586.85 35.1523 1592.16C70.6748 1621.83 103.435 1642.73 136.045 1656.51C166.607 1669.43 224.688 1684.04 261.533 1688.08C286.305 1690.8 314.09 1691.87 344.857 1691.31C392.022 1690.43 418.419 1687.61 487.412 1676.07C533.595 1668.35 550.375 1666.17 576.258 1664.5C627.301 1661.22 658.848 1660.38 733.834 1660.32C776.646 1660.28 816.191 1660.21 821.713 1660.15C827.234 1660.1 847.112 1660.44 865.885 1660.91C902.316 1661.82 916.72 1661.19 947.201 1657.35C997.32 1651.03 1030.64 1640.78 1080.72 1616.3C1109.86 1602.05 1125.07 1592.43 1161.03 1565.47C1199.21 1536.86 1212.7 1524.55 1230.67 1501.98C1256.76 1469.19 1288.58 1410.28 1302.48 1368.98C1311.69 1341.63 1321.25 1300.23 1325.4 1269.66C1327.35 1255.36 1327.62 1248.83 1327.65 1215.75C1327.68 1177.2 1327.27 1170.88 1322.55 1138.45C1317.32 1102.46 1303.11 1040.15 1290.01 995.815C1277.79 954.434 1274.52 940.154 1270.26 909.555C1267.76 891.63 1267.8 854.637 1270.34 840.787C1275.6 812.051 1284.58 796.404 1309.9 771.877C1338.93 743.749 1373.07 720.437 1425.56 692.893C1451.34 679.37 1476.77 669.812 1508.39 661.775C1571.65 645.689 1630.9 641.293 1701.14 647.474C1759.24 652.587 1782.06 656.301 1847.2 671.246C1911.98 686.105 1947.12 696.435 2004.94 717.615C2033.19 727.963 2037.27 729.328 2045.47 731.171L2051.5 732.524L2051.75 829.573C2051.92 890.604 2051.65 926.621 2051.05 926.621C2050.53 926.621 2040.02 925.232 2027.71 923.533C2008.74 920.918 2000.4 920.317 1973.19 919.607C1948.37 918.959 1936.5 918.18 1920.99 916.178C1897.59 913.157 1870.29 911.153 1865.31 912.087C1863.39 912.446 1840.12 913.122 1813.6 913.588C1771.03 914.338 1763.11 914.734 1745.97 916.967C1707.67 921.959 1685.25 927.999 1648.01 943.368C1595.64 964.979 1572.95 980.122 1562.33 1000.55C1557.7 1009.48 1553.75 1022.99 1552.11 1035.54C1549.82 1053 1545.93 1113.64 1545.01 1145.97C1544.48 1164.75 1543.57 1186.21 1543 1193.66C1540.77 1222.5 1528.29 1313.85 1522.83 1341.23C1517.57 1367.61 1505.71 1398.47 1484.65 1440.62C1468.7 1472.53 1461.09 1484.26 1451.29 1492.04C1444.91 1497.11 1440.88 1498.85 1435.53 1498.85C1432.18 1498.85 1430.75 1498.21 1428.09 1495.55C1421 1488.47 1421.27 1477.21 1429.24 1446.64C1435.22 1423.7 1435.91 1420.79 1441.16 1396.26C1446.77 1370.05 1448.29 1357.75 1449.67 1327.68C1450.27 1314.43 1451.42 1293.88 1452.22 1282C1454.81 1243.37 1454.15 1224.92 1448.57 1180.61C1441.62 1125.38 1435.22 1097.91 1420.45 1059.94C1408.92 1030.3 1406.67 1023.76 1399.46 998.766C1389.03 962.637 1388.78 958.255 1395 918.59C1398.21 898.074 1398.21 893.151 1394.99 889.933C1389.89 884.833 1376.96 887.937 1369.16 896.133C1358.74 907.074 1355.11 925.567 1358.84 948.707C1359.68 953.952 1363.11 968.86 1366.46 981.836C1378.36 1027.99 1379.73 1034.5 1383.87 1064.66C1385.31 1075.15 1388.69 1096.83 1391.39 1112.85C1397.61 1149.86 1398.35 1158.64 1399.12 1204.07C1400.09 1262.3 1398.18 1279.97 1384.97 1334.54C1378.63 1360.76 1375.07 1372.62 1368.65 1388.92C1353.49 1427.43 1314.65 1494.64 1288.59 1527.46C1269.34 1551.69 1232.07 1583.52 1196.54 1606.07C1184.42 1613.75 1144.48 1636.49 1123.38 1647.72C1081.04 1670.25 1032.67 1685.59 985.347 1691.49C952.88 1695.54 939.355 1695.93 853.333 1695.31C777.138 1694.77 770.031 1694.86 749.931 1696.7C725.548 1698.94 712.001 1700.97 686.684 1706.17C630.333 1717.76 606.509 1725.52 561.196 1747.06C525.901 1763.83 520.999 1766.44 501.61 1778.74C474.905 1795.68 460.004 1801.38 424.073 1808.42C388.762 1815.35 325.56 1822.93 284.669 1825.15C224.728 1828.4 200.591 1830.52 175.696 1834.73C145.664 1839.8 125.344 1845.83 104.419 1855.88C86.3215 1864.57 73.0823 1873.63 59.9066 1886.34C42.7258 1902.91 31.5827 1918.98 16.3889 1949.1C8.56556 1964.61 1.70364 1975.87 -1.9292 1979.16L-4 1981.03V1774.51ZM237.155 1645.32C167.855 1641.14 95.8867 1614.01 44.6895 1572.79C40.2723 1569.23 32.8493 1562.32 28.1939 1557.43C7.85383 1536.07 4.6169 1532.9 0.430815 1530.26L-3.99632 1527.46V1229.39V931.32L1.34355 925.708C8.23095 918.469 11.4944 912.747 31.0519 873.616C63.5257 808.643 72.3006 785.748 72.3006 765.996C72.3006 752.463 65.2229 727.708 55.8052 708.303C43.6514 683.259 13.0669 643.33 0.270278 635.8L-3.99632 633.29V395.961C-3.99632 206.766 -3.74183 158.634 -2.74144 158.636C0.143083 158.643 17.2944 161.948 26.5557 164.281C32.0402 165.662 48.0776 170.348 62.1943 174.693C120.888 192.76 121.684 192.846 236.439 193.482C386.205 194.312 423.983 190.196 467.575 168.303C489.166 157.459 510.379 141.314 564.717 94.3701C631.315 36.8332 645.642 22.1196 654.202 2.46945L657.021 -4H701.278H745.535L747.294 -0.013725C752.353 11.4537 764.108 22.828 777.545 29.2587C798.277 39.1807 818.101 38.9833 842.328 28.6138C860.079 21.0158 877.119 9.00472 883.556 -0.447542L885.967 -3.98627L1059 -3.99326C1223.37 -3.99928 1231.99 -3.91225 1231.37 -2.24329C1226.37 11.0972 1207.12 29.5756 1163.04 63.3498C1152.55 71.388 1130.22 88.5104 1113.42 101.399C1077.32 129.085 1059.44 142.026 1041.27 153.624C978.048 193.983 962.563 206.009 923.035 245.446C887.65 280.749 858.271 317.79 822.689 371.963C806.364 396.816 779.828 441.356 768.26 463.318C762.734 473.809 751.651 494.816 743.631 510C735.611 525.184 727.928 540.092 726.558 543.129C725.188 546.166 719.953 557.862 714.924 569.121C705.186 590.929 697.964 604.554 685.866 623.943C664.677 657.904 642.22 688.276 618.319 715.299C590.546 746.699 491.516 840.957 423.579 900.656C408.898 913.556 384.051 935.378 368.364 949.148C336.773 976.879 291.904 1021.06 266.732 1049.23C212.391 1110.03 180.01 1155.56 155.097 1206.21C129.676 1257.89 118.48 1299.32 118.48 1341.72C118.48 1394.73 134.184 1436.78 165.081 1466.49C195.745 1495.98 228.02 1509.17 325.285 1531.98C394.691 1548.26 425.514 1556.6 460.812 1568.65C486.397 1577.38 501.231 1583.25 513.326 1589.43C525.194 1595.5 530.082 1599.74 530.082 1603.97C530.082 1612.11 518.4 1615.46 467.665 1621.84C433.448 1626.14 413.508 1629.11 383.511 1634.38C319.47 1645.62 284.871 1648.2 237.158 1645.32L237.155 1645.32ZM774.252 1583.16C762.505 1582.69 743.305 1581.61 731.586 1580.76C719.867 1579.91 701.922 1578.74 691.707 1578.15C651.372 1575.84 598.047 1569.45 565.215 1563C526.201 1555.33 501.207 1547.14 452.777 1526.19C422.042 1512.89 408.084 1508.03 352.889 1491.44C264.85 1464.99 225.765 1445.2 199.94 1414.01C173.449 1382.02 166.139 1346.19 176.202 1297.66C183.786 1261.09 201.538 1225.86 229.121 1192.66C275.959 1136.27 337.881 1085.84 437.719 1022.78C487.59 991.278 513.835 974.77 549.885 952.227C612.324 913.181 621.598 906.617 647.164 883.371C670.443 862.205 693.874 837.039 706.908 819.203C727.306 791.291 744.396 751.449 776.16 657.751C802.698 579.469 814.519 551.749 845.604 494.909C912.708 372.207 978.938 292.482 1057.13 240.286C1078.92 225.737 1108.72 208.445 1152 185.225C1214.19 151.857 1244.95 131.099 1286.52 94.4245C1312.84 71.2028 1317.59 67.6544 1361.49 38.3432C1396.39 15.0371 1406.25 7.59561 1411.44 0.625236L1414.89 -4H1733.45H2052V310.223C2052 560.935 2051.75 624.444 2050.75 624.438C2048.21 624.424 2033.19 620.444 2024.89 617.59C2020.2 615.975 2001.45 609.119 1983.23 602.354C1871.28 560.795 1783.75 535.215 1708.66 522.113C1610.22 504.935 1543.55 503.557 1464.71 517.069C1412.63 525.996 1383.59 535.472 1337.29 558.652C1274.09 590.295 1229.88 624.738 1205.35 661.446C1191.75 681.808 1177.14 715.846 1171.05 741.4C1167.01 758.317 1165.44 771.611 1164.86 793.604C1164.16 820.183 1165.48 842.476 1170.59 890.794C1175.17 934.122 1176.49 943.84 1184.1 990.369C1190.57 1029.94 1197.04 1075.21 1199.1 1095.28C1204.09 1143.97 1204.87 1209.77 1200.78 1237.33C1188.46 1320.33 1165.62 1385.3 1129.74 1439.41C1100.6 1483.37 1055.02 1522.93 1004.18 1548.4C964.805 1568.13 924.91 1579.25 882.951 1582.18C862.112 1583.63 800.01 1584.2 774.252 1583.16Z" fill="#E3E5EE"/>
</g>
<defs>
<clipPath id="clip0_257_15">
<rect width="2048" height="2048" fill="white"/>
</clipPath>
</defs>
</svg>
