<svg width="2048" height="2048" viewBox="0 0 2048 2048" fill="none" xmlns="http://www.w3.org/2000/svg">
<g clip-path="url(#clip0_257_14)">
<path d="M-44.1714 2092.86C-45.9007 2091.86 -46 2082.69 -46 1923.6V1755.4L-41.5591 1757.65C-33.7274 1761.64 -25.7735 1767.53 -6.14985 1783.9C26.2918 1810.96 41.6198 1821.85 73.4325 1840.47C121.214 1868.43 155.973 1881.26 222.222 1895.39C245.367 1900.32 333.947 1914.67 400.182 1924.21C457.87 1932.51 538.227 1945.85 563.759 1951.36C592.21 1957.49 636.325 1969.35 674.474 1981.11C685.393 1984.48 712.901 1992.72 735.602 1999.42C758.302 2006.11 793.804 2017.15 814.493 2023.93C921.119 2058.91 936.715 2064.15 948.766 2068.97C968.535 2076.89 978.819 2082.38 985.293 2088.47L991.085 2093.92L758.308 2093.96L525.53 2094L521.147 2091.23C507.812 2082.82 462.957 2072.06 384.508 2058.47C331.579 2049.31 300.645 2039.52 217.92 2005.76C164.287 1983.88 136.249 1975.93 112.66 1975.93C95.0927 1975.93 84.9851 1980.62 79.8201 1991.17C74.1117 2002.84 78.3571 2018.11 91.7039 2033.92C102.803 2047.06 120.32 2059.86 148.926 2075.71C156.24 2079.77 164.76 2085.45 168.04 2088.47L173.956 2093.91L65.8066 2093.92C-5.79246 2093.93 -42.9603 2093.57 -44.1714 2092.87V2092.86ZM1544.73 2087.46C1536.38 2070.51 1511.19 2044.56 1488.03 2029.03C1461.71 2011.39 1423.9 1996.55 1371.22 1983.19C1315.14 1968.97 1273.72 1963.74 1193.79 1960.77C1133.7 1958.54 1104.17 1955.41 1060.05 1946.6C1000.04 1934.61 927.514 1910.95 862.56 1882.17C834.166 1869.59 786.265 1846.37 769.627 1837.12C662.209 1777.43 589.264 1696.24 575.258 1620.78C568.646 1585.16 575.073 1544.88 591.339 1520.03C603.824 1500.95 621.195 1490.82 641.592 1490.72C654.059 1490.65 663.729 1493.53 674.344 1500.46C684.593 1507.16 692.423 1515.18 713.605 1540.71C732.355 1563.31 762.387 1594.38 776.463 1605.75C817.972 1639.28 880.362 1660.22 962.35 1668.12C999.821 1671.74 1015.13 1672.24 1094.01 1672.45C1171.74 1672.67 1209.17 1673.76 1222.01 1676.18C1245.94 1680.69 1249.94 1694.98 1230.75 1707.38C1213.43 1718.58 1168.34 1731.69 1096.1 1746.54C1036.1 1758.87 1022.76 1762.88 1011.59 1771.94C1006.65 1775.94 1003.15 1782.3 1003.13 1787.31C1003.11 1792.06 1007.54 1800.39 1012.64 1805.19C1027.72 1819.37 1063.61 1834.89 1116.41 1850.09C1136.7 1855.92 1214.2 1873.54 1270.08 1885.01C1399.74 1911.64 1545.26 1958.67 1599.75 1991.56C1615.22 2000.9 1682.99 2048.59 1714.4 2072.25C1723.46 2079.07 1732.33 2087.77 1734.64 2092.08C1735.63 2093.93 1732.43 2093.99 1641.81 2093.99H1547.95L1544.73 2087.46ZM1887.05 2090.25C1880.62 2083.57 1874.53 2079.82 1837.96 2060.01C1792.2 2035.21 1774.35 2025.24 1721.49 1994.92C1678.49 1970.26 1662.08 1961.74 1643.64 1954.49C1616.11 1943.68 1539.58 1919.54 1471.64 1900.25C1422.2 1886.22 1350.6 1864.25 1313.04 1851.6C1267.82 1836.37 1255.09 1829.78 1249.8 1818.85C1247.03 1813.14 1247.03 1808.5 1249.78 1802.81C1253.92 1794.26 1266.47 1787.2 1287.35 1781.68C1348.92 1765.37 1508.42 1743.57 1566.31 1743.54C1589.36 1743.53 1598.49 1744.44 1614.31 1748.3C1633.68 1753.02 1647.12 1760.71 1671.85 1781.21C1719.53 1820.72 1746.22 1833.7 1814.48 1850.55C1876.83 1865.93 1922.63 1872.36 1960.77 1871.06C1995.27 1869.89 2016.32 1865.24 2058.47 1849.49C2067.95 1845.94 2079.83 1841.94 2084.86 1840.59L2094 1838.14V1966.07V2093.99H1992.32H1890.65L1887.05 2090.25H1887.05ZM394.957 1794.46C376.109 1789.39 345.616 1770 323.32 1748.9C312.696 1738.84 279.604 1703.11 262.612 1683.34C196.439 1606.35 185.139 1546.39 223.708 1476.91C235.799 1455.13 248.39 1437.12 263.765 1419.61C271.746 1410.53 304.634 1379.33 317.302 1368.83C346.61 1344.53 393.872 1314.95 455.04 1282.61C560.921 1226.65 613.873 1192.43 679.698 1137.47C696.479 1123.45 747.631 1078.51 769.039 1058.97C815.41 1016.64 837.87 998.582 874.576 974.11C920.019 943.815 986.042 907.731 1021.34 893.903C1047.41 883.685 1096.07 868.557 1115.78 864.539C1126.93 862.265 1131.09 861.902 1142.2 862.233C1154.96 862.614 1155.64 862.752 1163.29 866.534C1175.87 872.75 1183.22 882.764 1186.47 898.103C1190.55 917.38 1186.58 939.724 1174.64 964.53C1166.55 981.336 1158.62 994.003 1111.21 1065.79C1097 1087.32 1084.82 1100.28 1078.8 1100.28C1074.86 1100.28 1073.23 1096.42 1071.5 1082.95C1070.62 1076.1 1069.22 1068.09 1068.38 1065.14C1064.92 1052.95 1055.59 1044.26 1044.76 1043.15C1028.36 1041.45 1005.69 1053.76 958.692 1089.87C928.151 1113.33 901.636 1132.37 863.723 1158.03C814.377 1191.44 728.733 1248.06 700.597 1265.87C686.804 1274.6 669.976 1285.35 663.202 1289.75C656.428 1294.16 638.089 1305.59 622.45 1315.16C534.446 1369.01 512.848 1383.7 492.27 1403.75C475.669 1419.91 452.159 1449.56 438.753 1471.22C426.989 1490.23 412.961 1521.76 405.512 1545.93C395.741 1577.64 393.771 1608.4 399.167 1645C402.702 1668.98 407.49 1685.59 422.056 1724.45C430.68 1747.45 433.619 1758.65 433.619 1768.51C433.619 1778.01 431.426 1784.4 426.527 1789.18C419.553 1795.99 407.898 1797.93 394.957 1794.46V1794.46ZM-46 1435.96V1272.02L-39.9917 1270.17C-30.3659 1267.2 -12.3577 1257.69 24.5322 1236.11C115.865 1182.68 209.936 1121.68 249.064 1090.51C268.072 1075.36 277.002 1065.51 324.951 1006.76C336.678 992.389 354.54 970.995 364.646 959.213C388.007 931.978 410.138 905.408 429.92 880.844C446.931 859.721 463.013 840.725 481.668 819.717C488.303 812.246 502.163 796.296 512.469 784.273C522.776 772.25 536.64 756.87 543.281 750.095C567.241 725.646 640.543 654.324 665.592 631.088C679.672 618.028 701.484 596.678 714.063 583.646C726.641 570.614 746.861 550.701 758.994 539.395C826.546 476.453 855.359 445.747 864.873 426.557C868.189 419.871 868.485 418.647 867.384 416.229C866.214 413.662 865.8 413.525 860.941 414.1C850.887 415.291 833.861 425.889 806.324 448.097C782.076 467.653 738.167 503.916 727.765 512.976C706.978 531.081 619.456 612.421 590.357 640.678C538.889 690.656 456.499 774.333 434.22 799.253C427.755 806.485 414.35 822.277 404.431 834.346C394.513 846.414 377.833 865.928 367.365 877.71C356.898 889.491 341.805 906.889 333.826 916.372C325.846 925.854 308.677 945.838 295.672 960.78C282.666 975.723 260.307 1002.05 245.983 1019.3C207.267 1065.9 200.407 1072.96 175.469 1091.83C155.061 1107.27 90.6737 1149.88 59.0146 1168.89C36.6418 1182.32 -8.40788 1207.53 -18.6638 1212.35C-28.2718 1216.87 -41.1244 1221.49 -44.0931 1221.49C-45.928 1221.49 -46 1216.82 -46 1097.34V973.189L-26.5844 953.924C23.807 903.92 49.416 870.005 63.5224 834.589C70.5923 816.838 72.5088 807.436 72.5171 790.459C72.5171 768.98 69.0239 757.662 54.512 732.292C40.6313 708.027 37.6261 699.778 37.6063 685.896C37.5854 669.966 42.6856 659.007 62.4117 632.619C84.7594 602.723 90.7667 589.638 91.6914 568.829C92.5096 550.43 90.8701 544.608 68.5339 486.566C33.2667 394.923 8.35365 341.845 -18.5144 301.108C-26.5154 288.977 -37.7442 276.084 -43.0252 272.964L-46 271.207V208.376V145.543L-28.4976 144.077C-8.61792 142.411 46.9886 142.417 126.935 144.098C198.662 145.602 206.254 146.951 254.009 166.678C292.08 182.405 317.544 188.757 358.385 192.717C379.208 194.734 421.678 197.179 450.338 198.011C503.743 199.559 539.703 204.977 561.979 214.828C572.21 219.353 582.181 226.965 598.696 242.86C607.691 251.517 617.665 260.612 620.864 263.072C634.523 273.574 654.726 282.8 675.709 288.115C686.432 290.832 688.248 290.978 711.046 290.953C732.55 290.932 736.81 290.623 751.53 288.04C814.86 276.929 894.348 248.67 979.591 206.963C1017.05 188.635 1029.93 180.478 1035.65 171.455C1043.09 159.732 1036.88 149.716 1019.8 145.876C1005.03 142.555 995.649 142.636 897.042 146.928C821.52 150.215 790.5 147.287 753.888 133.412C746.991 130.799 736.176 126.688 729.854 124.277C705.903 115.141 688.156 110.949 661.412 108.109C644.885 106.354 620.46 105.707 484.82 103.427C434.606 102.584 409.56 101.723 390.777 100.196C372.607 98.719 348.041 97.8318 306.139 97.1411C273.668 96.6061 241.458 95.6532 234.562 95.0242C203.766 92.2113 155.774 80.5877 119.791 67.2242C104.017 61.3664 72.6895 46.237 56.512 36.6635C33.5457 23.0733 -4.59187 -3.50837 -17.7913 -15.1247C-20.9501 -17.9052 -25.7306 -22.7494 -28.415 -25.8905C-33.1318 -31.4087 -39.7305 -42.4554 -39.7305 -44.8326C-39.7305 -45.678 12.9827 -45.9926 154.902 -45.9926H349.535L351.438 -40.5068C354.584 -31.438 361.458 -20.876 369.345 -12.9879C381.925 -0.409224 398.967 6.28346 418.299 6.23435C432.142 6.203 448.036 3.38081 491.09 -6.6692C520.35 -13.4998 537.202 -16.8248 559.01 -20.0671C573.831 -22.2709 578.754 -22.4758 617.003 -22.4789C660.608 -22.4789 669.716 -21.9344 705.299 -17.1737C762.062 -9.57822 777.283 -6.18017 809.329 6.05476C839.497 17.5729 849.646 20.3618 872.486 23.412C905.069 27.763 931.078 28.0868 997.072 24.9605C1034.25 23.1987 1051.43 22.8821 1084.61 23.3482C1182.91 24.7296 1248.22 33.443 1321.8 54.9954C1416.06 82.6021 1517.81 146.085 1587.22 220.583C1620.54 256.355 1640.75 283.089 1664.51 322.842C1692.98 370.493 1716.47 427.219 1733.52 489.512C1744.88 531.023 1759.82 594.839 1764.23 620.664C1776.58 693.13 1772.35 741.93 1749.7 788.373C1737.26 813.885 1723.62 833.029 1702.15 855.118C1685.92 871.818 1672.19 883.182 1651.48 897.06C1630.24 911.285 1617.84 918.152 1569.45 942.489C1490.82 982.032 1453.85 1005.3 1415.4 1039.46C1370.53 1079.32 1360 1109.43 1379.41 1142.37C1392.82 1165.12 1417 1180.58 1454.27 1190.21C1472.2 1194.84 1487.06 1196.41 1513.02 1196.41C1552.32 1196.41 1572.67 1192.47 1669.24 1166.14C1716.65 1153.21 1734.61 1148.79 1745.69 1147.32C1762.09 1145.13 1773.2 1149.06 1778.25 1158.81C1780.31 1162.8 1780.61 1164.67 1780.26 1171.4C1779.91 1178.03 1779.16 1180.73 1775.57 1188.12C1769.7 1200.23 1760.88 1211.68 1747.42 1224.68C1734.33 1237.33 1721.46 1247.19 1696.41 1263.76C1673.46 1278.93 1659.88 1286.88 1625.35 1305.33C1609.84 1313.62 1583.31 1327.86 1566.4 1336.98C1518.62 1362.76 1431.14 1403.51 1382.04 1422.86C1350.91 1435.14 1275.91 1460.26 1236.01 1471.78C1165.23 1492.22 1092.86 1505.23 1043.24 1506.44C1010.21 1507.24 989.544 1504.97 964.777 1497.79C916.156 1483.7 901.33 1451.58 923.697 1408.8C933.973 1389.15 949.11 1369.95 981.603 1335.39C1010.55 1304.61 1045.77 1265.74 1057.37 1251.79C1075.51 1229.99 1110.82 1180.16 1139.41 1136.04C1160.65 1103.26 1177.65 1078.24 1189.76 1061.89C1207.07 1038.56 1221.01 1023.53 1288.39 955.56C1341.34 902.149 1353.06 889.648 1375.54 862.562C1427.92 799.449 1451.01 754.791 1459.28 700.6C1461.71 684.666 1461.73 654.836 1459.32 641.563C1457.04 629.002 1451.26 611.547 1446.69 603.423C1430.12 573.988 1393.37 555.463 1338.91 549.092C1293.17 543.742 1247.05 550.713 1180.22 573.078C1131.83 589.272 1078.71 613.898 1022.96 645.993C884.876 725.477 883.829 726.145 785.76 797.405C711.846 851.111 695.285 864.233 652.579 902.931C634.17 919.612 559.547 995.434 531.878 1025.57C507.627 1051.98 469.5 1089.95 456.472 1100.65C431.855 1120.88 403.968 1138.58 304.051 1197.41C197.923 1259.9 174.027 1275.16 101.858 1326.52C49.5831 1363.73 24.7391 1383.74 13.2522 1397.87C1.5533 1412.26 1.06947 1418.98 11.7298 1418.98C18.4131 1418.98 31.1915 1414.8 60.7388 1402.93C77.0333 1396.39 97.8878 1388.54 107.083 1385.49C122.486 1380.37 124.596 1379.93 133.893 1379.87C143.493 1379.8 144.203 1379.95 148.522 1382.97C154.358 1387.05 161.53 1397.47 169.36 1413.23C178.742 1432.12 180.704 1445.14 176.593 1461.21C173.802 1472.12 170.099 1478.62 161.49 1487.72C150.737 1499.09 139.17 1506.15 98.7279 1526.03C59.3668 1545.38 44.3993 1553.21 3.31822 1575.96C-20.2573 1589.01 -36.695 1597.14 -43.6469 1599.2L-45.998 1599.89L-46 1435.96ZM1615.95 1045.52C1605.23 1042.12 1598.04 1036.17 1595.55 1028.64C1593.81 1023.37 1594.8 1013.95 1597.68 1008.25C1601.41 1000.87 1615.58 987.934 1635.3 973.906C1684.99 938.551 1744.17 891.62 1775.69 862.577C1823.25 818.751 1845.36 782.293 1856.82 728.809C1860.04 713.75 1860.83 684.034 1858.43 667.719C1855.23 646.003 1850.31 629.756 1836.27 594.641C1821.46 557.602 1819.24 551.462 1796.72 485.343C1773.83 418.105 1770.62 409.975 1751.87 371.448C1733.69 334.112 1714.59 301.288 1695.68 274.913C1632.8 187.194 1569.25 124.472 1497.35 79.178C1423.62 32.7315 1344.51 4.72662 1235.6 -13.4811C1187.17 -21.576 1169.34 -23.3472 1087.22 -28.2165C1001.81 -33.2812 984.921 -34.9604 970.346 -39.8328C966.81 -41.0156 962.506 -42.8786 960.782 -43.9727C957.697 -45.9308 962.584 -45.9624 1274.41 -45.9791L1591.17 -46L1595.09 -40.8609C1600.05 -34.3458 1607.87 -27.9875 1632.67 -10.2741C1670.64 16.8467 1696.05 37.3249 1743.86 79.3201C1815.12 141.91 1832.56 155.297 1858.43 167.249C1870.79 172.96 1882.06 176.039 1904.22 179.754C1929.84 184.049 1937.45 185.892 1969.65 195.589C2023.68 211.86 2057.24 220.417 2079.37 223.572C2083.68 224.186 2088.74 224.932 2090.6 225.231L2094 225.773L2093.99 546.776L2093.98 867.78L2086.94 870.644C2083.07 872.22 2073.08 878.196 2064.75 883.923C2025.37 910.986 1985.23 934.14 1947.07 951.793C1864.36 990.058 1723.21 1035.27 1655 1045.34C1641.83 1047.29 1621.82 1047.38 1615.95 1045.52L1615.95 1045.52ZM2082.67 170.8C2069.11 166.225 2053.42 158.229 2033.64 145.813C2014.62 133.874 1949.65 91.0419 1928.12 76.2407C1855.51 26.3428 1816.56 0.0452962 1790.59 -16.6117C1775.91 -26.0243 1766.48 -33.7451 1761.98 -40.0292C1760.11 -42.6373 1758.58 -45.0469 1758.58 -45.3834C1758.58 -45.7209 1834.05 -45.9967 1926.29 -45.9967H2094V64.242C2094 124.873 2093.88 174.472 2093.74 174.463C2093.59 174.463 2088.61 172.805 2082.67 170.8V170.8Z" fill="#E3E5EE"/>
</g>
<defs>
<clipPath id="clip0_257_14">
<rect width="2048" height="2048" fill="white"/>
</clipPath>
</defs>
</svg>
