<svg width="2048" height="2048" viewBox="0 0 2048 2048" fill="none" xmlns="http://www.w3.org/2000/svg">
<g clip-path="url(#clip0_257_17)">
<path d="M147.027 2057.67C153.871 2044.89 178.448 2023.93 225.622 1990.63C249.171 1974.01 284.649 1946.49 330.488 1909.3C354.666 1889.69 424.062 1827.73 467.973 1786.56C493.629 1762.51 510.812 1747.92 588.731 1684.03C608.467 1667.84 639.674 1642.11 658.079 1626.84C752.677 1548.37 798.332 1515.04 858.898 1480.21C904.586 1453.94 930.955 1443.81 953.482 1443.86C974.838 1443.91 989.059 1452.64 996.996 1470.59C1000.15 1477.73 1002.35 1488.15 1004.24 1504.94C1006.16 1522.04 1007.96 1528.44 1012.13 1532.95C1023.99 1545.79 1044.21 1528.47 1067.92 1485.16C1084.13 1455.54 1092.51 1433.45 1112.78 1366.95C1122.24 1335.88 1129.48 1323.44 1141.48 1317.54C1146.38 1315.14 1148.55 1314.69 1155.45 1314.69C1162.89 1314.69 1164.34 1315.05 1171.68 1318.65C1178.47 1321.98 1181.6 1324.48 1191.42 1334.39C1219.37 1362.6 1241.82 1402.14 1275.31 1482.11C1298.6 1537.72 1308.92 1568.69 1322.7 1624.3C1340.3 1695.31 1344.45 1731.73 1350.71 1870.21C1352.84 1917.32 1355.43 1939.95 1361.35 1963.05C1367.77 1988.08 1374.2 2002.76 1389.57 2027.48C1398.03 2041.09 1405.45 2055.23 1407.02 2060.72L1407.67 2063L1120.21 2062.74L832.739 2062.49L831.444 2049.3C829.1 2025.42 831.289 2009.85 840.94 1981.76C848.142 1960.8 865.835 1916.47 879.387 1885.43C893.501 1853.11 896.017 1846.78 910.844 1806.29C934.356 1742.08 940.317 1720.26 937.691 1708.01C934.819 1694.62 923.761 1695.24 906.772 1709.74C902.846 1713.09 888.17 1728.08 874.16 1743.05C842.059 1777.35 824.452 1793.88 801.622 1811.15C767.356 1837.06 714.529 1868.21 654.749 1897.74C615.974 1916.89 605.791 1922.56 576.033 1941.55C536.588 1966.72 438.349 2030.54 428.526 2037.37C418.127 2044.61 405.978 2055.56 403.289 2060.11L401.583 2063H272.878H144.173L147.027 2057.67ZM2048.79 1885.77C2014.85 1882.36 1989.22 1875.26 1910.3 1847.37C1841.64 1823.11 1829.85 1817.43 1812.34 1800.2C1795.15 1783.28 1766.1 1741.51 1751.32 1712.44C1746.49 1702.95 1736.76 1682.4 1729.69 1666.78C1707.86 1618.54 1690.05 1583.94 1661.02 1533.35C1653.49 1520.24 1641.49 1498.55 1634.34 1485.16C1619.66 1457.63 1605.65 1433.94 1587.85 1406.52C1581.14 1396.2 1568.58 1376.56 1559.92 1362.89C1551.27 1349.22 1537.71 1327.99 1529.79 1315.71C1493.63 1259.62 1486.34 1244.55 1486.32 1225.91C1486.31 1214.9 1487.61 1211.01 1493.48 1204.51C1498.29 1199.19 1503.08 1196.81 1511.97 1195.35C1529.34 1192.48 1555.03 1199.38 1620.11 1224.41C1638.52 1231.49 1667.6 1242.46 1684.72 1248.79C1729.92 1265.5 1759.99 1277.03 1777.88 1284.5C1824.22 1303.87 1877.92 1323.99 1901.74 1330.91C1953.12 1345.84 1991.81 1345.19 2032.44 1328.7C2056.14 1319.08 2057.36 1318.61 2060.22 1317.89L2063 1317.19V1601.82V1886.45L2057.67 1886.29C2054.74 1886.19 2050.75 1885.96 2048.79 1885.77V1885.77ZM-15 1396.51V924.832L-10.8988 922.118C-4.1451 917.649 3.99726 908.809 19.1007 889.548C41.3579 861.166 54.08 847.363 80.6475 822.776C109.74 795.853 136.114 769.184 153.076 749.537C175.932 723.061 183.251 717.614 197.087 716.784C206.745 716.204 209.298 716.856 251.853 730.853C289.194 743.13 299.641 747.594 307.439 754.605C319.502 765.451 321.282 777.668 314.316 801.791C309.182 819.568 308.865 827.999 313.01 836.441C320.68 852.059 339.764 855.432 363.814 845.421C379.804 838.765 405.645 819.058 432.247 793.237C448.26 777.693 454.35 769.968 460.298 757.654C465.776 746.313 466.961 741.396 466.946 730.062C466.91 703.808 452.016 682.95 416.226 659.034C405.306 651.737 388.013 641.489 341.785 614.916C269.732 573.499 228.372 547.944 211.173 534.215C177.87 507.631 158.362 478.613 138.675 426.371C123.946 387.288 116.472 372.938 104.41 360.585C93.2762 349.184 82.7917 342.728 64.0338 335.724C41.7159 327.391 18.139 322.241 -2.57056 321.175L-15 320.535V235.027V149.52L-9.16577 150.024C17.8662 152.365 67.9252 158.409 86.9722 161.632C120.145 167.245 143.358 176.337 163.031 191.424C171.087 197.602 182.35 209.012 198.323 227.18C219.972 251.803 233.649 261.168 270.624 276.686C312.245 294.155 328.519 304.614 376.907 344.991C455.24 410.354 475.714 423.461 543.855 451.866C583.79 468.514 592.79 471.99 645.029 490.952C718.833 517.74 730.081 522.579 777.663 548.014C792.395 555.89 814.01 566.842 825.696 572.354C867.906 592.258 878.337 594.891 936.74 600.384C986.925 605.105 1036.23 610.909 1061.03 615.019C1074.43 617.237 1095.66 620.25 1108.22 621.714C1154.02 627.054 1187.1 634.021 1210.19 643.195C1245.22 657.11 1267.96 673.919 1277.28 692.774C1281.06 700.419 1281.21 701.124 1281.21 710.948C1281.21 720.533 1281 721.607 1277.74 728.219C1269.05 745.873 1243.24 763.88 1186.85 791.634C1173.46 798.225 1152 808.487 1139.16 814.438C1126.33 820.39 1103.27 831.701 1087.92 839.575C1037.07 865.666 1027.79 870.223 998.126 883.679C932.221 913.577 862.686 938.964 811.411 951.849C775.603 960.847 755.488 963.502 706.922 965.634C687.948 966.467 665.119 968.033 656.19 969.114C631.713 972.08 609.151 974.108 581.749 975.801C568.151 976.642 546.691 978.462 534.06 979.845C521.429 981.226 501.278 983.29 489.28 984.429C440.043 989.101 418.168 993.127 364.961 1007.31C314.726 1020.7 286.403 1033.01 248.301 1057.99C222.76 1074.74 206.307 1088.87 187.177 1110.49C154.471 1147.45 133.919 1181.46 114.068 1231.49C95.3258 1278.73 84.2301 1318.42 79.8996 1353.73C76.113 1384.6 79.5361 1436.73 87.4879 1469.3C95.657 1502.75 113.71 1535.77 161.166 1604.06C189.353 1644.63 195.884 1657.71 196.779 1675.4C198.063 1700.77 188.736 1716.63 144.998 1763.48C95.0346 1817 59.3222 1844.52 20.5127 1859.41C9.86771 1863.5 -7.54982 1868.18 -12.0861 1868.18H-15V1396.51ZM438.251 1294.82C430.385 1290.67 428.293 1281.79 432.868 1271.96C438.329 1260.23 453.1 1247.7 491.31 1222.39C520.522 1203.04 536.227 1193.68 556.247 1183.7C572.242 1175.72 628.343 1150.38 669.38 1132.6C693.338 1122.22 713.27 1112.07 718.306 1107.68L722.142 1104.33L719.605 1103.37C715.227 1101.72 700.079 1104 656.19 1112.91C617.439 1120.78 615.38 1121.38 515.661 1154.06C432.563 1181.3 417.901 1186.72 377.669 1205.15C327.523 1228.12 314.266 1233.07 303.155 1232.97C289.927 1232.86 282.924 1226.35 282.986 1214.24C283.048 1202.16 290.915 1188.71 307.622 1172.14C324.873 1155.02 342.824 1143.21 380.713 1124.05C408.636 1109.92 422.785 1103.62 442.275 1096.64C479.494 1083.29 513.114 1074.24 562.842 1064.17C580.7 1060.56 606.041 1055.32 619.155 1052.54C632.27 1049.75 657.839 1045.12 675.976 1042.24C730.849 1033.54 750.165 1029.16 799.657 1014.22C822.373 1007.36 888.164 983.794 913.403 973.478C965.488 952.19 1015.58 931.532 1035.67 923.056C1141.16 878.542 1196.97 861.385 1249.19 857.414C1263.12 856.354 1267.97 856.423 1284.44 857.914C1319.39 861.076 1357.49 867.3 1413.12 878.939C1472.84 891.433 1504.75 895.92 1550.05 898.191C1584 899.893 1607.45 896.815 1624.67 888.395C1635.22 883.236 1647.04 871.36 1652.78 860.133C1660.47 845.121 1663.35 832.152 1663.4 812.395C1663.43 797.786 1662.12 788.001 1658.02 772.407C1650.49 743.737 1632.82 708.221 1607.01 669.887C1594.36 651.089 1580.24 633.318 1533.13 576.846C1511.87 551.368 1473.29 511.299 1455.23 495.935C1430.04 474.521 1379.98 440.098 1344.12 419.55C1315.35 403.059 1293.66 393.122 1248.24 375.63C1208.95 360.498 1172.44 349.682 1096.04 330.54C1048.13 318.536 1039.32 315.56 1004.21 299.518C994.169 294.928 980.015 288.539 972.76 285.319C941.734 271.553 896.578 248.137 861.656 227.706C822.776 204.959 783.697 174.263 766.913 153.285C752.17 134.858 740.32 103.701 735.235 69.9935C733 55.1787 733.242 27.328 735.793 5.80026C736.917 -3.68669 737.844 -12.2483 737.853 -13.2244C737.868 -14.9127 757.666 -15 1139.26 -15H1540.65L1541.23 -12.717C1542.55 -7.49161 1551.96 9.08873 1564.4 28.1225C1600.26 82.9885 1618.57 118.277 1651.51 195.949C1662.04 220.797 1675.86 249.031 1693.28 281.277C1711.22 314.505 1723.37 339.928 1733.75 366C1747.7 401.046 1757.82 419.999 1778.17 449.201C1790.41 466.757 1815.86 500.766 1837.77 528.851C1867.31 566.696 1892.37 600.575 1921.48 641.984C1932.86 658.186 1943.51 669.412 1950.88 673C1958.41 676.66 1968.4 676.499 1975.02 672.609C1987.62 665.204 1992.07 648.017 1986.93 626.586C1979.45 595.394 1947.28 526.859 1907.48 457.357C1896.96 438.985 1879.09 406.677 1854.15 360.927C1838.85 332.875 1827.64 307.875 1813.4 270.064C1793.73 217.856 1781.97 179.06 1778.34 154.446C1776.3 140.656 1776.8 121.156 1779.44 110.816C1784.74 90.087 1798.77 73.0934 1819.03 62.8454C1831.23 56.6754 1853.21 50.3885 1872.75 47.4815C1902.28 43.0891 1925.86 43.0853 1965.82 47.4716C1978.51 48.8617 2000.88 50.6467 2015.54 51.4381C2030.2 52.2285 2046.88 53.4408 2052.6 54.1317L2063 55.3877V169.291V283.195L2057.49 288.405C2048.6 296.813 2042.62 309.814 2038.57 329.545C2035.53 344.329 2034.75 377.078 2037.06 392.892C2041.09 420.462 2050.56 447.862 2059.48 457.729L2063 461.626V848.591V1235.56L2057.67 1238.54C2054.74 1240.18 2047.33 1244.94 2041.19 1249.11C2021.9 1262.24 2008.14 1267.48 1992.99 1267.49C1978.02 1267.5 1968.57 1263.18 1951.87 1248.69C1935.49 1234.48 1929.24 1231.67 1894.57 1222.96C1842.59 1209.89 1825.81 1204.57 1774.33 1184.82C1730.3 1167.92 1718.31 1163.73 1682.68 1152.8C1664.45 1147.21 1629.9 1136.06 1605.9 1128.02C1581.91 1119.98 1549.49 1109.24 1533.86 1104.14C1472.74 1084.2 1444.37 1072.26 1390.22 1043.68C1353.36 1024.23 1317.79 1008.89 1283.75 997.799C1234.73 981.817 1208.14 979.324 1163.71 986.544C1128.63 992.245 1083.9 1007.18 1033.13 1030.16C1010.37 1040.46 959.735 1065.97 920.508 1086.89C888.773 1103.83 811.646 1142.27 780.486 1156.69C769.604 1161.73 751.341 1170.28 739.9 1175.69C716.354 1186.84 692.213 1197.32 665.996 1207.78C635.638 1219.9 588.125 1241.19 534.53 1266.68C485.772 1289.86 465.865 1296.99 450.049 1296.9C444.122 1296.87 441.123 1296.34 438.253 1294.82L438.251 1294.82ZM1891.22 1093.53C1912.81 1086.7 1935.4 1065.47 1953.14 1035.33C1964.98 1015.2 1980.34 980.011 1986.84 958.101C1992.41 939.333 1994.09 929.3 1994.71 911.253C1995.55 886.712 1992.82 871.508 1986.14 863.572C1981.09 857.566 1975.61 858.035 1970.64 864.899C1966.85 870.129 1964.57 877.259 1959.02 901.226C1950.81 936.645 1943.59 958.418 1927.53 996.092C1911.02 1034.83 1901.74 1049.98 1880 1073.65C1869.9 1084.63 1866.7 1089.58 1867.82 1092.48C1869.43 1096.67 1879.81 1097.14 1891.22 1093.53Z" fill="#000000" opacity="0.1"/>
</g>
<defs>
<clipPath id="clip0_257_17">
<rect width="2048" height="2048" fill="E3E5EE"/>
</clipPath>
</defs>
</svg>
