<svg width="160" height="160" viewBox="0 0 160 160" fill="none" xmlns="http://www.w3.org/2000/svg">
<path d="M107.344 4.09448C98.635 4.28556 90.0277 6.21379 82.8095 8.49273C81.5343 8.72773 80.3737 9.04587 79.3744 9.39593C79.0747 9.50094 78.792 9.61719 78.5053 9.73099C68.3658 4.77958 56.8498 5.29523 48.8705 6.98316C34.0295 9.35954 24.5096 20.8663 20.7059 31.6923L20.5516 32.1314L20.4201 32.578C18.1102 40.4098 18.1949 48.3173 19.8424 55.6682C3.83033 64.688 -3.75596 84.4127 1.81877 101.633C4.82619 112.104 12.2877 118.605 20.7853 122.153C20.8507 124.418 21.0806 126.708 21.5571 128.969L21.5633 128.995L21.5694 129.022C25.3185 146.556 42.3176 156.564 57.4379 156.868C67.1276 157.341 76.6516 154.713 84.6832 149.695C92.7342 153.585 101.981 154.93 110.717 153.267L109.612 153.443C130.217 150.782 142.298 131.697 143.059 114.904L143.067 114.736L143.071 114.568C143.318 105.359 141.325 95.9868 137.378 87.459C141.495 84.0436 145.228 80.1835 148.471 75.9485L148.617 75.7587L148.757 75.5651C155.74 65.936 161.496 50.8968 157.891 36.1561L157.463 34.406L156.7 32.7713C152.348 23.4541 144.657 16.8484 138.814 12.6994L138.476 12.4593L138.127 12.2342C128.115 5.77641 117.231 3.87763 107.345 4.09448H107.344ZM57.4368 156.868C57.2349 156.858 57.0341 156.864 56.832 156.852L57.8211 156.887C57.6939 156.886 57.5643 156.871 57.4368 156.868Z" fill="#F9E217"/>
<path d="M57.6309 139.437C49.5595 139.36 41.2389 134.287 39.4913 125.921C38.2196 119.747 39.7306 113.354 41.4045 107.409C32.9945 108.756 21.8436 105.874 19.4678 96.4791C16.2913 86.8146 20.8814 75.316 30.0109 70.8655C33.7433 67.6992 41.2802 66.9169 43.6335 64.7097C38.1908 56.8167 35.2964 46.4716 38.0115 37.0469C40.2049 30.6609 45.2095 24.9374 52.1717 24.1102C59.8592 22.3877 69.5289 22.6922 74.8401 29.39C76.9093 35.3757 82.003 25.4587 86.3066 25.6305C99.2787 21.1885 114.968 18.7682 127.11 26.7826C131.819 30.2051 136.422 34.4524 138.883 39.8432C140.931 48.4121 137.707 57.6206 132.754 64.6091C126.971 72.3372 119.108 78.426 110.187 81.9763C119.058 90.1586 123.98 102.519 123.663 114.607C123.228 124.443 116.737 134.738 106.48 136.094C97.6098 137.822 87.8929 133.814 83.2471 125.862C77.916 134.768 67.9086 140.091 57.6309 139.437ZM60.74 133.848C70.2851 130.251 74.1374 119.672 77.4316 110.804C78.9265 105.805 87.4158 106.064 90.184 109.688C92.0567 117.477 93.5748 127.148 101.376 131.18C107.145 131.402 110.006 124.254 111.357 119.451C113.22 110.553 110.581 101.251 106.706 93.2646C105.345 88.1483 98.1592 85.3395 98.2534 80.5453C103.609 78.1004 109.302 76.0429 113.849 72.0678C122.42 65.0492 129.042 53.9302 127.097 42.4422C124.911 36.3694 119.639 31.6661 114.171 28.5386C107.847 25.4333 100.465 27.8878 94.1559 29.8313C87.6123 32.8 82.1475 38.35 79.1561 44.9329C77.2966 47.6882 75.6692 54.7202 71.1803 50.3276C69.5053 44.3994 68.7345 38.0597 65.0223 32.9186C62.737 26.6974 54.2704 28.1579 52.4692 33.86C47.7667 41.9278 50.0803 52.1307 54.326 59.8618C55.7908 63.5894 63.6456 70.456 55.6295 71.4674C50.9573 71.9547 46.2745 69.8649 42.1651 73.411C36.1389 75.979 32.3928 81.8984 31.4865 88.3231C30.7338 93.1781 32.0233 102.595 38.4485 101.88C44.123 100.898 46.9105 94.3614 52.8627 94.6662C57.3774 93.7662 62.3252 97.5695 57.4365 101.275C53.4271 109.248 50.9859 118.63 52.7673 127.531C53.9132 130.599 56.8067 135.425 60.74 133.848Z" fill="#32312F"/>
</svg>
