<svg width="160" height="160" viewBox="0 0 160 160" fill="none" xmlns="http://www.w3.org/2000/svg">
<path d="M78.426 2.01509C67.0706 1.61389 54.2477 9.23016 52.0343 22.9453C49.17 21.3132 45.9954 19.9481 42.6234 19.2865L40.8097 18.9309H38.9616C10.5389 18.9292 12.0563 42.7154 22.2202 57.3308C18.4731 58.1406 14.6502 59.2528 11.0961 60.9045L1.28879 65.4623L0.184985 76.2224C-1.94344 96.9684 14.826 99.4744 23.2189 99.452C22.2008 101.024 21.1974 102.607 20.2268 104.213L17.6332 108.504L17.49 113.516C16.9551 132.242 34.4182 139.39 48.9693 134.142C49.9253 141.651 53.3936 151.207 64.2118 156.182L66.141 157.07L68.2183 157.51C82.8423 160.608 96.7808 150.412 99.0224 136.167L99.1789 135.172C100.889 135.87 102.693 136.458 104.619 136.858L105.324 137.004L106.038 137.096C136.131 140.995 136.108 111.01 124.853 97.369C123.883 96.1825 122.901 95.0069 121.91 93.8411C127.864 93.7495 134.142 93.5077 140.594 92.4525L139.462 92.6031C169.15 89.5625 165.506 48.0202 135.92 49.8491L136.52 49.8214C133.241 49.9203 129.775 49.9962 126.396 50.0707C136.564 33.0421 119.418 12.5367 100.701 18.4358C97.3893 8.10554 88.0209 2.3544 78.426 2.01539V2.01509ZM124.853 97.3687C124.871 97.3902 124.889 97.4111 124.906 97.4326L124.84 97.3518C124.844 97.3573 124.848 97.3633 124.853 97.3687V97.3687Z" fill="#075EFF"/>
<path d="M72.0987 138.897C65.8022 136.001 68.3023 127.861 67.9734 122.334C68.3385 110.085 68.9191 97.8457 69.5122 85.6067C62.3063 94.4294 55.9971 104.025 47.4916 111.712C45.7452 115.239 36.2657 120.456 36.4482 114.067C44.274 101.12 53.9407 89.3956 63.557 77.757C52.35 77.5941 41.2658 79.3045 30.1407 80.2944C27.1891 79.9214 18.6237 82.3436 19.0516 78.1724C26.2434 74.8301 34.4689 74.8138 42.1925 73.5418C48.9122 72.7149 55.6824 72.4985 62.4368 72.1788C55.3425 64.2728 48.1808 56.4234 40.2731 49.3143C37.0949 46.6507 30.8754 37.9706 38.898 37.9711C44.9412 39.1568 49.0586 44.7363 53.8683 48.2798C59.6205 53.4473 64.9353 59.071 70.0629 64.8542C70.6985 52.1995 69.66 39.4953 70.656 26.8669C70.8935 20.1873 82.1902 18.4872 82.8431 25.8216C82.6622 36.1697 82.6938 46.5254 82.8196 56.8765C90.2081 50.1063 96.92 42.3679 105.432 36.9715C111.291 33.9166 110.74 40.5447 107.268 43.0855C99.6969 53.0019 90.4235 61.494 82.4435 71.0249C86.4807 71.3979 91.7483 70.5832 96.2229 70.4444C109.793 69.2385 123.431 69.2629 137.031 68.853C142.023 68.5444 142.385 73.1721 137.461 73.6765C125.619 75.613 113.495 74.2554 101.572 75.5353C95.1483 76.0351 88.7118 76.3819 82.2846 76.7884C81.8378 79.224 84.7233 80.3526 85.831 82.1808C93.8865 91.3113 102.409 100.063 110.111 109.486C112.767 112.7 115.39 119.132 108.42 118.229C102.45 116.991 98.2841 111.553 94.2201 107.32C90.0602 102.643 85.8483 98.0071 81.616 93.3969C80.7821 106.652 80.5429 119.944 80.1621 133.215C79.5234 137.274 76.1297 139.751 72.0987 138.897V138.897Z" fill="#FBF4EC"/>
</svg>
