<svg width="240" height="160" viewBox="0 0 240 160" fill="none" xmlns="http://www.w3.org/2000/svg">
<ellipse cx="120" cy="80" rx="120" ry="80" fill="#075EFF"/>
<path d="M49.048 85C59.64 85 66.936 79.304 69.784 70.28L62.008 68.136C60.216 74.12 55.928 77.736 49.048 77.736C39.768 77.736 35.096 71.08 35.096 61C35.128 50.92 39.768 44.264 49.048 44.264C55.928 44.264 60.216 47.88 62.008 53.864L69.784 51.72C66.936 42.696 59.64 37 49.048 37C35.256 37 27 46.696 27 61C27 75.304 35.256 85 49.048 85Z" fill="#FBF4EC"/>
<path d="M105.514 84.04V76.808H85.162V37.96H77.45V84.04H105.514Z" fill="#FBF4EC"/>
<path d="M119.287 84.04V37.96H111.575V84.04H119.287Z" fill="#FBF4EC"/>
<path d="M148.361 85C158.953 85 166.248 79.304 169.096 70.28L161.32 68.136C159.528 74.12 155.241 77.736 148.361 77.736C139.081 77.736 134.409 71.08 134.409 61C134.441 50.92 139.081 44.264 148.361 44.264C155.241 44.264 159.528 47.88 161.32 53.864L169.096 51.72C166.248 42.696 158.953 37 148.361 37C134.569 37 126.312 46.696 126.312 61C126.312 75.304 134.569 85 148.361 85Z" fill="#FBF4EC"/>
<path d="M183.835 84.04V62.536L203.258 84.04H213.051L191.898 60.552L211.706 37.96H202.234L183.835 59.336V37.96H176.122V84.04H183.835Z" fill="#FBF4EC"/>
<path d="M46.4433 122.04V100.188H54.8313V96.12H33.7173V100.188H42.1053V122.04H46.4433Z" fill="#FBF4EC"/>
<path d="M68.6714 122.58C76.4474 122.58 81.0914 117.126 81.0914 109.08C81.0914 101.034 76.4474 95.58 68.6714 95.58C60.9134 95.58 56.2694 101.034 56.2694 109.08C56.2694 117.126 60.9134 122.58 68.6714 122.58ZM68.6714 118.494C63.4514 118.422 60.8414 114.75 60.8594 109.08C60.8774 103.41 63.4514 99.612 68.6714 99.666C73.8914 99.738 76.5014 103.41 76.5014 109.08C76.5014 114.75 73.8914 118.548 68.6714 118.494Z" fill="#FBF4EC"/>
<path d="M101.475 122.58C106.803 122.58 111.645 119.88 111.645 114.498C111.645 109.35 107.217 108.054 104.697 107.37L100.053 106.074C98.3073 105.606 96.3092 104.904 96.3092 102.978C96.3092 100.962 98.5773 99.612 101.169 99.666C103.833 99.738 106.227 101.268 106.785 104.004L111.447 103.194C110.295 98.388 106.551 95.67 101.223 95.616C95.9493 95.58 91.7552 98.19 91.7552 103.194C91.7552 107.766 95.2292 109.152 97.5332 109.818L104.229 111.798C106.191 112.392 107.109 113.346 107.109 114.786C107.109 117.18 104.517 118.512 101.745 118.512C98.6132 118.512 96.0033 116.766 95.2473 113.688L90.7472 114.372C91.5572 119.466 95.8052 122.58 101.475 122.58Z" fill="#FBF4EC"/>
<path d="M126.107 122.04V100.188H134.495V96.12H113.381V100.188H121.769V122.04H126.107Z" fill="#FBF4EC"/>
<path d="M142.071 122.04V96.12H137.733V122.04H142.071Z" fill="#FBF4EC"/>
<path d="M158.425 122.58C164.383 122.58 168.487 119.376 170.089 114.3L165.715 113.094C164.707 116.46 162.295 118.494 158.425 118.494C153.205 118.494 150.577 114.75 150.577 109.08C150.595 103.41 153.205 99.666 158.425 99.666C162.295 99.666 164.707 101.7 165.715 105.066L170.089 103.86C168.487 98.784 164.383 95.58 158.425 95.58C150.667 95.58 146.023 101.034 146.023 109.08C146.023 117.126 150.667 122.58 158.425 122.58Z" fill="#FBF4EC"/>
<path d="M178.379 122.04V109.944L189.305 122.04H194.813L182.915 108.828L194.057 96.12H188.729L178.379 108.144V96.12H174.041V122.04H178.379Z" fill="#FBF4EC"/>
<path d="M203.488 96.12H199.15V115.56H203.488V96.12ZM203.488 122.04V118.062H199.15V122.04H203.488Z" fill="#FBF4EC"/>
</svg>
