<svg width="240" height="160" viewBox="0 0 240 160" fill="none" xmlns="http://www.w3.org/2000/svg">
<ellipse cx="120" cy="80" rx="120" ry="80" fill="#FF8064"/>
<path d="M25.852 100.16C26.496 100.16 28.904 100.16 30.752 99.936C40.356 98.732 45.592 90.276 45.592 80C45.592 69.752 40.356 61.268 30.752 60.064C28.876 59.84 26.524 59.84 25.852 59.84H13V100.16H25.852ZM19.86 66.196H25.852C26.972 66.196 28.932 66.224 30.304 66.504C35.876 67.568 38.452 73.42 38.452 80C38.452 86.328 36.016 92.404 30.304 93.496C28.932 93.776 26.972 93.804 25.852 93.804H19.86V66.196Z" fill="#32312F"/>
<path d="M58.9589 93.832V82.436H74.8909V76.108H58.9589V66.168H78.2509V59.84H52.2109V100.16H78.2509V93.832H58.9589Z" fill="#32312F"/>
<path d="M99.5099 101C107.798 101 115.33 96.8 115.33 88.428C115.33 80.42 108.442 78.404 104.522 77.34L97.2979 75.324C94.5819 74.596 91.4739 73.504 91.4739 70.508C91.4739 67.372 95.0019 65.272 99.0339 65.356C103.178 65.468 106.902 67.848 107.77 72.104L115.022 70.844C113.23 63.368 107.406 59.14 99.1179 59.056C90.9139 59 84.3899 63.06 84.3899 70.844C84.3899 77.956 89.7939 80.112 93.3779 81.148L103.794 84.228C106.846 85.152 108.274 86.636 108.274 88.876C108.274 92.6 104.242 94.672 99.9299 94.672C95.0579 94.672 90.9979 91.956 89.8219 87.168L82.8219 88.232C84.0819 96.156 90.6899 101 99.5099 101Z" fill="#32312F"/>
<path d="M128.699 100.16V59.84H121.951V100.16H128.699Z" fill="#32312F"/>
<path d="M153.718 101C165.422 101 172.478 92.796 172.478 81.372C172.478 81.148 172.422 79.608 172.366 79.02H158.086V84.312H165.198C164.162 91.256 160.214 94.728 154.138 94.644C146.018 94.532 141.958 88.82 141.986 80C142.014 71.18 146.018 65.272 154.138 65.384C159.486 65.412 162.986 68.492 164.526 73.252L171.414 72.16C169.37 63.872 163.63 59 153.718 59C142.938 59 134.846 66.784 134.846 80C134.846 93.44 143.218 101 153.718 101Z" fill="#32312F"/>
<path d="M184.934 71.74L203.638 100.16H210.47V59.84H203.638V88.26L184.934 59.84H178.102V100.16H184.934V71.74Z" fill="#32312F"/>
<path d="M227.845 59.84H221.097V90.08H227.845V59.84ZM227.845 100.16V93.972H221.097V100.16H227.845Z" fill="#32312F"/>
</svg>
