<svg width="240" height="160" viewBox="0 0 240 160" fill="none" xmlns="http://www.w3.org/2000/svg">
<ellipse cx="120" cy="80" rx="120" ry="80" fill="#F9E217"/>
<path d="M40.946 105.961C45.874 105.961 50.098 104.041 52.626 99.6569C54.386 96.6169 54.162 94.2169 54.162 89.9289V58.9209H46.354V89.9289C46.354 92.4569 46.354 94.3129 45.746 95.6889C44.754 97.8329 42.45 98.7289 40.658 98.7289C37.938 98.7289 35.346 96.5849 34.866 93.9609L27.25 95.7849C29.106 101.993 33.874 105.961 40.946 105.961Z" fill="#32312F"/>
<path d="M83.2805 105.961C97.1045 105.961 105.361 96.2649 105.361 81.9609C105.361 67.6569 97.1045 57.9609 83.2805 57.9609C69.4885 57.9609 61.2325 67.6569 61.2325 81.9609C61.2325 96.2649 69.4885 105.961 83.2805 105.961ZM83.2805 98.6969C74.0005 98.5689 69.3605 92.0409 69.3925 81.9609C69.4245 71.8809 74.0005 65.1289 83.2805 65.2249C92.5605 65.3529 97.2005 71.8809 97.2005 81.9609C97.2005 92.0409 92.5605 98.7929 83.2805 98.6969Z" fill="#32312F"/>
<path d="M138.962 80.7129C141.842 78.9849 143.57 75.7849 143.57 71.5929C143.57 65.3849 139.314 58.9209 130.002 58.9209H111.73V105.001H131.858C140.946 105.001 145.714 99.4969 145.714 91.3049C145.714 86.6649 143.378 82.5689 138.962 80.7129ZM129.906 66.1209C133.554 66.1209 135.73 68.5209 135.73 71.7209C135.73 75.4009 133.202 77.3209 129.906 77.3209H119.538V66.1209H129.906ZM119.538 97.7369V84.5209H131.122C135.442 84.5209 137.938 87.3689 137.938 91.0809C137.938 95.1769 134.93 97.7369 130.898 97.7369H119.538Z" fill="#32312F"/>
<path d="M169.161 105.961C178.633 105.961 187.241 101.161 187.241 91.5929C187.241 82.4409 179.369 80.1369 174.889 78.9209L166.633 76.6169C163.529 75.7849 159.977 74.5369 159.977 71.1129C159.977 67.5289 164.009 65.1289 168.617 65.2249C173.353 65.3529 177.609 68.0729 178.601 72.9369L186.889 71.4969C184.841 62.9529 178.185 58.1209 168.713 58.0249C159.337 57.9609 151.881 62.6009 151.881 71.4969C151.881 79.6249 158.057 82.0889 162.153 83.2729L174.057 86.7929C177.545 87.8489 179.177 89.5449 179.177 92.1049C179.177 96.3609 174.569 98.7289 169.641 98.7289C164.073 98.7289 159.433 95.6249 158.089 90.1529L150.089 91.3689C151.529 100.425 159.081 105.961 169.161 105.961Z" fill="#32312F"/>
<path d="M205.079 58.9209H197.367V93.4809H205.079V58.9209ZM205.079 105.001V97.9289H197.367V105.001H205.079Z" fill="#32312F"/>
</svg>
