<svg width="161" height="160" viewBox="0 0 161 160" fill="none" xmlns="http://www.w3.org/2000/svg">
<path d="M81.0377 3.77725C77.5054 3.73683 71.3473 3.97713 65.211 6.50363C49.049 9.07659 33.4635 16.7697 21.8041 28.9094C0.661561 50.2333 -6.76377 84.7902 6.95101 112.859C19.6177 138.999 47.5116 154.915 75.2625 155.541C101.696 156.558 128.86 144.515 145.155 122.862C160.763 102.605 166.102 73.3786 155.011 48.6776C143.45 21.6429 115.534 5.09612 87.8813 3.9024L87.234 3.87445L86.586 3.89006C85.1788 3.92413 83.481 3.80528 81.0377 3.77733V3.77725ZM155.011 48.6776C155.041 48.7492 155.076 48.8186 155.106 48.8903L154.911 48.445C154.946 48.5221 154.976 48.6004 155.011 48.6776V48.6776ZM145.155 122.862C145.125 122.902 145.096 122.942 145.066 122.982L145.244 122.748C145.215 122.786 145.184 122.824 145.155 122.862ZM75.2625 155.541C75.2272 155.539 75.1918 155.541 75.1563 155.539L75.5657 155.551C75.4647 155.549 75.3637 155.542 75.2625 155.54V155.541ZM6.95101 112.859C6.94305 112.843 6.93517 112.829 6.92833 112.814L6.96685 112.893C6.96208 112.881 6.95562 112.87 6.95085 112.859H6.95101ZM21.8041 28.9094C21.8599 28.8531 21.9128 28.7938 21.9688 28.7377L21.6755 29.0377C21.7173 28.9938 21.7621 28.9531 21.8041 28.9094Z" fill="#075EFF"/>
<path d="M75.9318 136.336C54.6965 135.943 33.6285 123.835 24.2545 104.454C14.2723 84.0538 19.7655 58.191 35.5933 42.3343C44.8389 32.6589 57.666 26.6283 70.9087 25.1408C75.5248 22.099 81.7354 23.2567 87.0614 23.1278C108.156 24.0384 129.019 36.6054 137.403 56.4015C145.501 74.2491 141.681 95.9527 129.862 111.227C117.419 127.826 96.5261 137.157 75.9318 136.336ZM82.6063 132.033C106.91 130.036 128.01 109.331 130.56 85.03C133.348 64.9273 123.337 43.4538 105.329 33.7462C96.2428 28.4834 85.5037 26.9222 75.1706 27.9934C70.3766 27.2571 65.9413 30.5043 61.6169 32.2546C44.8502 40.9411 32.064 57.8344 30.4334 76.9393C28.2316 97.9678 40.0936 120.268 59.9529 128.359C67.0547 131.464 74.8956 132.662 82.6063 132.033ZM79.7163 112.234C71.5049 111.571 63.0608 109.407 56.1999 104.705C53.2001 101.729 47.5817 95.9661 49.9053 92.0279C55.7301 92.1545 57.011 99.8405 61.4953 102.699C66.8922 106.727 73.7398 108.68 80.3633 109.403C90.1576 109.674 100.076 104.703 105.91 96.871C108.05 91.0395 117.14 94.6092 110.992 99.4101C103.211 107.978 91.233 112.747 79.7163 112.234ZM58.9358 81.9702C54.6216 79.0817 55.4485 71.7658 54.9252 66.8718C53.3478 61.5674 58.3217 52.5064 63.2663 58.908C65.2 66.2483 64.7011 74.3102 62.3123 81.4067C61.3509 82.1218 60.0534 81.9587 58.9358 81.9702ZM103.406 79.9431C98.0606 78.9494 101.406 70.329 99.8359 67.3741C96.4203 71.5271 93.696 77.0115 88.6725 79.3407C79.9201 80.0121 89.2288 71.083 91.2384 67.9987C92.2466 65.6302 99.3889 60.8682 97.5896 60.0366C92.8504 59.6202 87.2369 61.8399 83.088 59.2992C88.1052 56.7896 94.6744 57.3989 100.361 57.1828C107.795 55.187 107.801 62.8054 107.465 67.9885C106.468 71.7987 110.118 80.7161 103.406 79.9431Z" fill="#FBF4EC"/>
</svg>
