<svg width="160" height="160" viewBox="0 0 160 160" fill="none" xmlns="http://www.w3.org/2000/svg">
<path d="M121.257 11.0002C120.591 10.9976 119.909 11.0243 119.213 11.0814C110.512 11.7939 103.954 18.1231 101.469 20.8791C95.6593 13.426 85.2636 9.798 73.7074 15.3362L71.6341 16.3299L69.8564 17.7885C63.0091 23.4071 58.4205 30.7862 54.9605 34.6434L55.0841 34.5071C47.3037 43.014 41.1498 52.6389 35.7869 61.4253C28.8032 59.6995 20.5882 59.5682 12.5914 64.0908L10.2129 65.4359L8.30853 67.3956C-3.56724 79.6152 -1.35848 98.6354 6.47395 109.455L6.60407 109.635L6.73849 109.812C12.2733 117.094 18.4973 124.062 25.3436 130.4L25.7216 130.75L26.1185 131.079C28.1662 132.779 44.1168 149.745 62.974 137.313L64.6446 136.212L66.0501 134.787C67.2291 133.591 68.3729 132.372 69.5002 131.143C71.6328 140.853 78.9179 148.888 92.8698 148.899C109.454 149.742 122.752 140.557 131.05 132.663L131.245 132.478L131.433 132.288C141.381 122.275 149.07 110.492 154.852 98.4603C171.267 73.6454 143.957 63.5299 135.107 61.1045C134.866 61.0066 134.603 60.8977 134.382 60.8085C134.265 60.761 134.171 60.7221 134.06 60.6771C135.004 56.5847 137.042 51.5842 137.942 43.8803C138.198 43.5035 138.434 43.1898 138.7 42.7546C139.287 41.7941 139.952 40.5729 140.535 39.1902L143.629 31.8576L140.588 24.5033C137.72 17.569 131.243 11.0371 121.257 11.0002V11.0002ZM124.404 112.767L124.043 113.472C124.13 113.311 124.204 113.151 124.287 112.989C124.326 112.91 124.365 112.848 124.404 112.767Z" fill="#F9E217"/>
<path d="M93.9 129.855C86.3875 130.009 87.5278 121.808 90.61 117.507C93.0779 111.637 98.6155 106.708 98.4202 99.9623C95.1789 93.2345 87.9183 89.6911 84.0187 83.3991C73.457 95.7226 64.6138 109.767 53.1386 121.4C47.8562 124.883 42.7786 119.605 38.931 116.412C32.954 110.879 27.4763 104.756 22.5514 98.2766C18.94 93.2877 18.0957 85.3181 22.6159 80.6671C28.8117 77.163 36.1857 80.8706 41.6241 84.2262C45.8717 87.9088 46.9097 78.2963 49.8958 75.9303C55.9106 65.9949 61.9127 55.9688 69.7875 47.3587C74.147 42.4988 77.5094 36.6765 82.5871 32.51C89.1247 29.3769 88.8617 36.5549 85.4362 40.0217C78.4087 50.6428 68.9449 59.3955 62.0843 70.1538C57.6115 76.6123 52.5889 82.7279 48.483 89.4139C45.0559 93.6645 39.2411 89.2844 35.7778 86.9242C32.7397 84.6703 27.6243 81.5971 29.1142 88.0147C28.9725 96.9429 36.5826 102.861 41.539 109.346C44.029 110.921 46.7758 117.395 49.3383 116.292C61.2733 101.777 71.4993 85.9632 83.291 71.3325C92.8558 59.5852 101.866 47.2713 113.036 36.9596C115.592 34.8503 121.449 26.495 123.634 31.7776C122.148 35.298 117.198 38.0948 119.759 41.073C118.838 50.1583 114.165 58.9194 115.409 68.223C117.031 74.65 124.123 76.8787 129.574 79.1507C134.431 80.164 143.858 82.1443 138.95 88.9445C133.833 99.8998 127.105 110.263 118.57 118.853C111.976 125.126 103.356 130.583 93.9 129.855V129.855ZM98.6249 126.036C106.985 123.349 113.57 116.736 118.726 109.832C123.766 102.924 128.948 95.7428 131.546 87.5273C129.576 82.647 121.347 84.4502 117.25 81.1387C111.593 78.6659 105.452 74.4121 105.367 67.5431C104.843 63.289 106.747 57.3044 106.925 54.2518C100.477 62.0064 94.2465 69.9408 88.1168 77.949C93.8859 81.3903 98.6406 86.3069 103.567 90.8308C107.435 94.232 110.683 99.2984 107.917 104.439C104.447 111.585 98.0295 117.394 96.2183 125.305C96.4986 126.339 97.8547 126.127 98.6249 126.036V126.036Z" fill="#32312F"/>
</svg>
